<svg width="295" height="735" viewBox="0 0 295 735" fill="none" xmlns="http://www.w3.org/2000/svg">
<rect width="44.5833" height="98.0833" transform="matrix(-1 0 0 1 231.834 68.3611)" fill="#0E87DE"/>
<rect width="29.7222" height="74.3056" transform="matrix(-1 0 0 1 62.417 237.778)" fill="#5DDE0E"/>
<rect width="62.4167" height="231.833" rx="31.2083" transform="matrix(-1 0 0 1 62.417 237.778)" fill="#342316"/>
<rect x="181.306" y="237.778" width="80.25" height="74.3056" fill="#5DDE0E"/>
<rect width="62.4167" height="231.833" transform="matrix(-1 0 0 1 124.834 502.306)" fill="#4F331F"/>
<path d="M160.5 502.306H222.917V734.139H160.5V502.306Z" fill="#4F331F"/>
<path d="M231.834 237.778H62.4173V548.111C62.4173 563.851 75.1772 576.611 90.9173 576.611H231.834V237.778Z" fill="#5DDE0E"/>
<path d="M247.75 21H120C116.686 21 114 23.6863 114 27V71.5278H236.25C242.601 71.5278 247.75 66.3791 247.75 60.0278V21Z" fill="#0E87DE"/>
<path d="M208.056 237.778H89.1668C89.1668 264.042 110.458 285.333 136.722 285.333H160.5C186.764 285.333 208.056 264.042 208.056 237.778Z" fill="#4EB410"/>
<path d="M222.917 75.3333C222.917 73.1242 221.126 71.3333 218.917 71.3333H78.3059C76.0967 71.3333 74.3059 73.1242 74.3059 75.3333V227.5C74.3059 249.591 92.2145 267.5 114.306 267.5H182.917C205.008 267.5 222.917 249.591 222.917 227.5V75.3333Z" fill="#28190E"/>
<path d="M223 0H104C95.7157 0 89 6.71573 89 15V127H159.5C194.57 127 223 98.5701 223 63.5V0Z" fill="#622BFE"/>
<path d="M160.5 20.8055H111.458C84.3734 20.8055 62.4167 42.7622 62.4167 69.8472V117.403C62.4167 144.488 84.3734 166.444 111.458 166.444H142.5C152.441 166.444 160.5 158.386 160.5 148.444V20.8055Z" fill="#0E87DE"/>
<rect width="62.4167" height="231.833" rx="31.2083" transform="matrix(-1 0 0 1 294.417 238)" fill="#342316"/>
</svg>
