<svg width="537" height="585" viewBox="0 0 537 585" fill="none" xmlns="http://www.w3.org/2000/svg">
	<g filter="url(#filter0_f_24_1357)">
		<rect width="44.5833" height="98.0833" transform="matrix(-1 0 0 1 464.834 218.361)" fill="#0E87DE" />
		<rect width="29.7222" height="74.3056" transform="matrix(-1 0 0 1 295.417 387.778)" fill="#5DDE0E" />
		<rect width="62.4167" height="231.833" rx="31.2083" transform="matrix(-1 0 0 1 295.417 387.778)" fill="#342316" />
		<rect x="414.306" y="387.778" width="80.25" height="74.3056" fill="#5DDE0E" />
		<path d="M464.834 387.778H295.417V698.111C295.417 713.851 308.177 726.611 323.917 726.611H464.834V387.778Z" fill="#5DDE0E" />
		<path d="M480.75 171H353C349.686 171 347 173.686 347 177V221.528H469.25C475.601 221.528 480.75 216.379 480.75 210.028V171Z" fill="#0E87DE" />
		<path d="M441.056 387.778H322.167V387.778C322.167 414.042 343.458 435.333 369.722 435.333H393.5C419.764 435.333 441.056 414.042 441.056 387.778V387.778Z" fill="#4EB410" />
		<path d="M455.917 225.333C455.917 223.124 454.126 221.333 451.917 221.333H311.306C309.097 221.333 307.306 223.124 307.306 225.333V377.5C307.306 399.591 325.214 417.5 347.306 417.5H415.917C438.008 417.5 455.917 399.591 455.917 377.5V225.333Z" fill="#28190E" />
		<path d="M456 150H337C328.716 150 322 156.716 322 165V277H392.5C427.57 277 456 248.57 456 213.5V150Z" fill="#622BFE" />
		<path d="M393.5 170.806H344.458C317.373 170.806 295.417 192.762 295.417 219.847V267.403C295.417 294.488 317.373 316.444 344.458 316.444H375.5C385.441 316.444 393.5 308.386 393.5 298.444V170.806Z" fill="#0E87DE" />
		<rect width="62.4167" height="231.833" rx="31.2083" transform="matrix(-1 0 0 1 527.417 388)" fill="#342316" />
	</g>
	<g filter="url(#filter1_f_24_1357)">
		<rect width="44.5833" height="98.0833" transform="matrix(-1 0 0 1 166.834 79.3611)" fill="#5DDE0E" />
		<rect x="116.306" y="248.778" width="80.25" height="74.3056" fill="#C32A03" />
		<rect width="62.4167" height="231.833" transform="matrix(-1 0 0 1 59.834 513.306)" fill="#4F331F" />
		<path d="M95.5 513.306H157.917V745.139H95.5V513.306Z" fill="#4F331F" />
		<path d="M166.834 248.778H-2.58269V559.111C-2.58269 574.851 10.1772 587.611 25.9173 587.611H166.834V248.778Z" fill="#C32A03" />
		<path d="M182.75 32H55C51.6863 32 49 34.6863 49 38V82.5278H171.25C177.601 82.5278 182.75 77.3791 182.75 71.0278V32Z" fill="#5DDE0E" />
		<path d="M143.056 248.778H24.1668V248.778C24.1668 275.042 45.4581 296.333 71.7223 296.333H95.5001C121.764 296.333 143.056 275.042 143.056 248.778V248.778Z" fill="#AC2300" />
		<path d="M157.917 86.3333C157.917 84.1242 156.126 82.3333 153.917 82.3333H13.3059C11.0967 82.3333 9.30588 84.1242 9.30588 86.3333V238.5C9.30588 260.591 27.2145 278.5 49.3059 278.5H117.917C140.008 278.5 157.917 260.591 157.917 238.5V86.3333Z" fill="#4F331F" />
		<path d="M158 11H39C30.7157 11 24 17.7157 24 26V138H94.5C129.57 138 158 109.57 158 74.5V11Z" fill="#008716" />
		<path d="M95.5 31.8056H46.4584C19.3734 31.8056 -2.58334 53.7623 -2.58334 80.8472V128.403C-2.58334 155.488 19.3734 177.444 46.4583 177.444H77.5C87.4411 177.444 95.5 169.386 95.5 159.444V31.8056Z" fill="#5DDE0E" />
		<rect width="62.4167" height="231.833" rx="31.2083" transform="matrix(-1 0 0 1 229.417 249)" fill="#4F331F" />
	</g>
	<defs>
		<filter id="filter0_f_24_1357" x="223.9" y="140.9" width="312.617" height="752.339" filterUnits="userSpaceOnUse" color-interpolation-filters="sRGB">
			<feFlood flood-opacity="0" result="BackgroundImageFix" />
			<feBlend mode="normal" in="SourceGraphic" in2="BackgroundImageFix" result="shape" />
			<feGaussianBlur stdDeviation="4.55" result="effect1_foregroundBlur_24_1357" />
		</filter>
		<filter id="filter1_f_24_1357" x="-75.1" y="0.9" width="314.617" height="754.339" filterUnits="userSpaceOnUse" color-interpolation-filters="sRGB">
			<feFlood flood-opacity="0" result="BackgroundImageFix" />
			<feBlend mode="normal" in="SourceGraphic" in2="BackgroundImageFix" result="shape" />
			<feGaussianBlur stdDeviation="5.05" result="effect1_foregroundBlur_24_1357" />
		</filter>
	</defs>
</svg>