<svg width="251" height="72" viewBox="0 0 251 72" fill="none" xmlns="http://www.w3.org/2000/svg">
<path d="M108 19C108 8.50659 116.507 0 127 0H248C249.657 0 251 1.34315 251 3V69C251 70.6569 249.657 72 248 72H127C116.507 72 108 63.4934 108 53V19Z" fill="#1B3363"/>
<path d="M227 0V14M232 0V10M237 0V10M242 0V10M247 0V10" stroke="white" stroke-width="2"/>
<path d="M202 0V14M207 0V10M212 0V10M217 0V10M222 0V10" stroke="white" stroke-width="2"/>
<path d="M12.5112 52V39.232L0.847188 20.272L4.68719 17.968L14.9592 35.008L25.0392 18.16L28.6392 20.272L17.0712 39.232V52H12.5112ZM40.3129 52.576C37.9449 52.576 35.8169 52.032 33.9289 50.944C32.0409 49.824 30.5529 48.288 29.4649 46.336C28.4089 44.352 27.8809 42.08 27.8809 39.52C27.8809 36.832 28.4249 34.512 29.5129 32.56C30.6009 30.608 32.0889 29.104 33.9769 28.048C35.8649 26.992 37.9769 26.464 40.3129 26.464C42.6489 26.464 44.7449 26.992 46.6009 28.048C48.4889 29.104 49.9769 30.608 51.0649 32.56C52.1849 34.48 52.7449 36.768 52.7449 39.424C52.7449 42.08 52.2009 44.4 51.1129 46.384C50.0249 48.336 48.5369 49.856 46.6489 50.944C44.7929 52.032 42.6809 52.576 40.3129 52.576ZM40.3129 48.736C42.8409 48.736 44.8089 47.888 46.2169 46.192C47.6249 44.464 48.3289 42.24 48.3289 39.52C48.3289 37.856 47.9769 36.336 47.2729 34.96C46.5689 33.552 45.6089 32.432 44.3929 31.6C43.2089 30.736 41.8489 30.304 40.3129 30.304C37.7849 30.304 35.8169 31.136 34.4089 32.8C33.0009 34.464 32.2969 36.672 32.2969 39.424C32.2969 41.088 32.6489 42.64 33.3529 44.08C34.0569 45.488 35.0009 46.624 36.1849 47.488C37.4009 48.32 38.7769 48.736 40.3129 48.736ZM66.6484 52.576C65.2084 52.576 63.8484 52.272 62.5684 51.664C61.2884 51.056 60.2484 50.08 59.4484 48.736C58.6484 47.36 58.2484 45.536 58.2484 43.264V27.04H62.5684V42.688C62.5684 44.64 62.9844 46.144 63.8164 47.2C64.6484 48.224 65.8644 48.736 67.4644 48.736C68.7764 48.736 70.0404 48.48 71.2564 47.968C72.5044 47.424 73.6084 46.704 74.5684 45.808V27.04H78.8884V45.52C78.8884 46.896 79.1764 47.808 79.7524 48.256C80.3604 48.672 81.0164 48.88 81.7204 48.88L80.8084 52.24C77.8324 52.24 75.9924 51.056 75.2884 48.688C74.1684 49.84 72.8724 50.784 71.4004 51.52C69.9284 52.224 68.3444 52.576 66.6484 52.576ZM87.4572 52V27.04H91.6332V32.464C92.0492 31.408 92.6092 30.432 93.3132 29.536C94.0172 28.608 94.8972 27.872 95.9532 27.328C97.0092 26.752 98.2412 26.464 99.6492 26.464C100.129 26.464 100.609 26.496 101.089 26.56C101.569 26.592 101.969 26.656 102.289 26.752L100.993 31.216C100.385 30.96 99.6652 30.832 98.8332 30.832C97.6492 30.832 96.5132 31.168 95.4252 31.84C94.3692 32.512 93.4892 33.552 92.7852 34.96C92.1132 36.368 91.7772 38.16 91.7772 40.336V52H87.4572Z" fill="#1B3363"/>
<path d="M127.98 52V22.432H117.66V18.4H142.86V22.432H132.54V52H127.98ZM152.65 52.576C150.57 52.576 148.682 52.048 146.986 50.992C145.29 49.936 143.93 48.448 142.906 46.528C141.914 44.576 141.418 42.288 141.418 39.664C141.418 37.168 141.914 34.928 142.906 32.944C143.93 30.96 145.322 29.392 147.082 28.24C148.874 27.056 150.922 26.464 153.226 26.464C154.666 26.464 155.962 26.72 157.114 27.232C158.298 27.712 159.322 28.32 160.186 29.056V27.04H164.122V45.952C164.122 47.168 164.41 47.968 164.986 48.352C165.594 48.704 166.25 48.88 166.954 48.88L166.042 52.24C162.97 52.24 161.114 50.992 160.474 48.496C159.738 49.52 158.73 50.464 157.45 51.328C156.202 52.16 154.602 52.576 152.65 52.576ZM153.61 48.736C154.826 48.736 155.978 48.448 157.066 47.872C158.154 47.264 159.066 46.512 159.802 45.616V32.224C158.938 31.616 157.978 31.136 156.922 30.784C155.898 30.4 154.81 30.208 153.658 30.208C152.122 30.208 150.762 30.608 149.578 31.408C148.426 32.176 147.514 33.264 146.842 34.672C146.17 36.048 145.834 37.664 145.834 39.52C145.834 41.312 146.17 42.912 146.842 44.32C147.514 45.696 148.442 46.784 149.626 47.584C150.81 48.352 152.138 48.736 153.61 48.736ZM172.723 52V27.04H177.043V52H172.723ZM174.883 22.768C174.051 22.768 173.331 22.464 172.723 21.856C172.147 21.248 171.859 20.544 171.859 19.744C171.859 18.816 172.131 18.08 172.675 17.536C173.219 16.992 173.955 16.72 174.883 16.72C175.715 16.72 176.419 17.024 176.995 17.632C177.603 18.208 177.907 18.912 177.907 19.744C177.907 20.64 177.635 21.376 177.091 21.952C176.547 22.496 175.811 22.768 174.883 22.768ZM192.307 52.576C190.835 52.576 189.507 52.304 188.323 51.76C187.139 51.184 186.195 50.272 185.491 49.024C184.819 47.776 184.483 46.16 184.483 44.176V16.48H188.803V43.744C188.803 45.472 189.155 46.752 189.859 47.584C190.595 48.416 191.603 48.832 192.883 48.832C193.491 48.832 194.083 48.768 194.659 48.64C195.267 48.48 195.779 48.304 196.195 48.112L197.251 51.616C196.675 51.872 195.955 52.096 195.091 52.288C194.259 52.48 193.331 52.576 192.307 52.576ZM211.125 52.576C208.757 52.576 206.629 52.032 204.741 50.944C202.853 49.824 201.365 48.288 200.277 46.336C199.221 44.352 198.693 42.08 198.693 39.52C198.693 36.832 199.237 34.512 200.325 32.56C201.413 30.608 202.901 29.104 204.789 28.048C206.677 26.992 208.789 26.464 211.125 26.464C213.461 26.464 215.557 26.992 217.413 28.048C219.301 29.104 220.789 30.608 221.877 32.56C222.997 34.48 223.557 36.768 223.557 39.424C223.557 42.08 223.013 44.4 221.925 46.384C220.837 48.336 219.349 49.856 217.461 50.944C215.605 52.032 213.493 52.576 211.125 52.576ZM211.125 48.736C213.653 48.736 215.621 47.888 217.029 46.192C218.437 44.464 219.141 42.24 219.141 39.52C219.141 37.856 218.789 36.336 218.085 34.96C217.381 33.552 216.421 32.432 215.205 31.6C214.021 30.736 212.661 30.304 211.125 30.304C208.597 30.304 206.629 31.136 205.221 32.8C203.813 34.464 203.109 36.672 203.109 39.424C203.109 41.088 203.461 42.64 204.165 44.08C204.869 45.488 205.813 46.624 206.997 47.488C208.213 48.32 209.589 48.736 211.125 48.736ZM229.301 52V27.04H233.477V32.464C233.893 31.408 234.453 30.432 235.157 29.536C235.861 28.608 236.741 27.872 237.797 27.328C238.853 26.752 240.085 26.464 241.493 26.464C241.973 26.464 242.453 26.496 242.933 26.56C243.413 26.592 243.813 26.656 244.133 26.752L242.837 31.216C242.229 30.96 241.509 30.832 240.677 30.832C239.493 30.832 238.357 31.168 237.269 31.84C236.213 32.512 235.333 33.552 234.629 34.96C233.957 36.368 233.621 38.16 233.621 40.336V52H229.301Z" fill="white"/>
</svg>
