<svg width="144" height="144" viewBox="0 0 144 144" fill="none" xmlns="http://www.w3.org/2000/svg">
<circle cx="72" cy="72" r="71.5" fill="white" stroke="black"/>
<rect x="46" y="77" width="11" height="29" fill="black" stroke="white" stroke-width="4"/>
<path d="M36 61H73C75.2091 61 77 62.7909 77 65V74H45.5C40.2533 74 36 69.7467 36 64.5V61Z" fill="black" stroke="white" stroke-width="4"/>
<path d="M49 54H86C88.2091 54 90 55.7909 90 58V74H58.5C53.2533 74 49 69.7467 49 64.5V54Z" fill="black" stroke="white" stroke-width="4"/>
<rect x="68.5" y="3.5" width="6" height="30" fill="black" stroke="black"/>
<path d="M118 79C118 91.8427 112.803 106.521 104.292 117.969C95.7515 129.455 84.4292 137 72.5 137C60.5708 137 49.2485 129.455 40.7082 117.969C32.1973 106.521 27 91.8427 27 79C27 53.5569 47.4089 33 72.5 33C97.5912 33 118 53.5569 118 79Z" stroke="black" stroke-width="8"/>
<path d="M51 76.5H93C94.933 76.5 96.5 78.067 96.5 80V117C96.5 130.531 85.531 141.5 72 141.5C58.469 141.5 47.5 130.531 47.5 117V80C47.5 78.067 49.067 76.5 51 76.5Z" fill="black" stroke="black"/>
<path d="M70 61H95C97.2091 61 99 62.7909 99 65V78H79.5C74.2533 78 70 73.7467 70 68.5V61Z" fill="black" stroke="white" stroke-width="4"/>
</svg>
