<svg width="640" xmlns="http://www.w3.org/2000/svg" height="480">
<g>
<g id="layer1">
<g id="g58036">
<g style="fill-rule:evenodd">
<path style="fill:#fac53a;stroke:#c13c1b;stroke-width:.432" id="path22350" d="m 71.7388,323.027 l .2142,8.3466 c -0.064308,12.0001 -0.391731,24.7317 -2.90338,33.5227 l -13.446,97.2081 -7.7449,-.8353 c 5.81035,-32.5352 7.02778,-64.1789 10.5417,-96.2684 2.11705,-21.0636 6.6086,-15.0461 13.3384,-41.9738 z "/>
<g style="stroke:#000">
<g style="stroke-width:.216;fill:none">
<path id="path5160" d="m 49.961,135.6871 h 20.9932"/>
<path id="path5162" d="m 49.5807,141.8151 l 21.0692,.2953"/>
</g>
<g style="stroke-linecap:round;stroke-linejoin:round">
<path style="fill:#a13c2a;stroke-width:.432" id="path16040" d="m 106.6623,94.5187 l -27.741,.3538 c -13.5033,4.1564 -24.2167,9.18617 -28.4096,23.4523 -1.51325,8.20359 -0.124157,11.1114 -0.645424,17.3325 l -.4302,6.4736 c -0.926636,13.9645 -1.3068,28.0351 -0.215126,42.3915 0.87508,12.4599 -1.8794,25.7551 -2.1514,38.215 0.43726,10.4476 3.04808,18.1964 3.54975,27.33 l 13.4461,-1.018 c 6.17304,-33.7635 2.60657,-44.8121 4.08755,-60.3505 2.24281,-18.9556 2.25073,-37.369 3.01191,-55.9651 8.2896,14.5161 16.9615,28.5374 21.7288,47.6121 l -.0001,3.1585 -4.5178,20.2299 c -2.42436,3.30116 -9.37244,18.2843 -4.3277,26.8266 -5.75728,32.7159 -8.47742,66.1702 -8.15026,98.8862 l -.4303,10.65 c -0.915009,14.5064 -6.92397,29.0192 -6.66921,44.8974 0.254776,15.8782 3.20141,31.4182 5.37842,46.568 0.82473,17.4717 -1.66142,20.5743 -1.03879,26.9468 0.622604,6.37241 4.29324,6.08038 8.03441,6.03961 3.81345,-0.041626 7.51372,-0.667877 7.64532,-3.10736 3.93793,-1.07303 9.49607,3.33612 50.3433,1.80014 1.76851,-0.232513 1.89969,-2.75558 2.06227,-4.54669 -1.82115,-0.482788 -3.70918,-0.705536 -5.73262,-0.402832 -13.5831,-6.44443 -26.9293,-9.21069 -40.8759,-21.3002 -0.660156,-0.66394 -1.21622,-1.55499 -1.07563,-3.96765 1.7581,-23.9021 7.11751,-48.7149 9.25085,-72.6712 l .6454,-3.7588 c 1.88597,-4.67841 3.55645,-10.6113 5.80868,-13.156 0.913818,-4.87259 1.29192,-9.74518 4.51785,-14.6178 l 10.4026,-.2088 c 4.72175,12.9443 5.36155,18.2051 8.17513,26.9385 2.19202,12.7743 0.226837,18.1992 3.36616,28.4002 3.1653,10.2854 9.93109,23.6372 15.2747,33.6208 3.27568,8.56686 7.78668,17.6133 9.28654,25.5289 0.430069,5.09888 -0.442535,9.03677 0.180099,15.4092 0.622604,6.37241 4.29317,6.08038 8.03438,6.03961 3.81346,-0.041626 7.51366,-0.667877 7.64525,-3.10736 3.93794,-1.07303 9.49615,3.33612 50.3434,1.80014 1.76842,-0.232513 1.8996,-2.75558 2.06229,-4.54669 -1.82112,-0.482788 -3.70926,-0.705536 -5.73268,-0.402832 -13.5831,-6.44443 -30.5867,-10.046 -44.515,-22.1355 -1.34402,-1.45831 -1.7722,-3.06476 -2.28536,-4.65747 l -15.768,-73.8608 c -0.019775,-7.48224 0.955811,-14.5929 -2.58157,-23.3884 l -.2152,-5.8471 -13.0088,-115.528 1.4452,-4.8858 c 1.84602,-4.13422 0.5298,-8.51225 0.59166,-12.399 1.54494,-11.65 3.98589,-23.0825 6.66922,-34.4562 1.69862,-3.8364 3.26907,-8.4489 4.53332,-13.2959 1.24744,-0.469986 1.6141,-1.8127 0.754684,-3.08084 0.847076,-3.69667 1.50035,-7.46135 1.88428,-11.0645 l .5727,-.1237 .8527,7.4649 c 0.332184,1.80986 0.275314,3.59158 0.596405,5.37028 2.40122,13.3027 4.87968,26.4361 13.2242,49.9073 l 2.7716,5.8992 c 6.28354,17.6673 15.471,31.3708 24.9965,44.6129 l 11.8657,-8.298 c -6.85713,-16.4547 -11.6847,-33.5386 -22.0349,-48.9103 l -1.8486,-4.3562 c -0.728973,-12.7633 -2.36308,-30.7486 -5.87375,-44.8568 l -1.3735,-10.5756 c 3.89237,-17.494 -4.48704,-29.1657 -20.4578,-31.7563 l -26.3785,-4.9795"/>
<g id="g10379">
<path style="fill:#fac53a" id="path10381" d="m 71.1296,134.1893 l -21.1003,-.3892 -.8149,11.6759 21.5998,-.0446 .3154,-11.2422 z "/>
<g style="fill:#04a">
<path id="path10383" d="m 71.1,135.4807 l -21.1589,-.0549 -.2465,3.4157 21.3032,.1572 .1022,-3.518 z "/>
<path id="path10385" d="m 70.9016,140.2595 l -21.2695,.0526 -.2978,3.7068 21.4599,.015 .1074,-3.7744 z "/>
</g>
</g>
<path style="fill:#fac53a;stroke-width:.216" id="path10177" d="m 69.92,329.9935 c 0.311607,-1.78146 1.13458,-3.69891 1.39967,-5.75842 2.97629,-23.1269 3.42481,-62.6461 10.5081,-92.9541 -2.04694,-5.50899 -1.24606,-11.7672 0.27771,-16.9794 1.50466,-5.14687 3.64273,-9.16707 4.73901,-10.6801 0.79232,-3.59972 3.12867,-14.2766 3.93903,-21.8353 0.034554,-0.382019 0.367355,-0.673126 0.76239,-0.666916 0.212975,0.003723 0.414223,0.094757 0.554192,0.250565 0.139862,0.155869 0.205299,0.361908 0.179955,0.567139 -0.832542,7.76558 -3.2169,18.5939 -3.99073,22.1093 -0.02314,0.100891 -0.068069,0.195908 -0.131828,0.278656 -0.800186,1.06056 -3.10804,5.2619 -4.60253,10.3741 -1.49457,5.11211 -2.21799,11.1949 -0.244736,16.2942 0.050758,0.133011 0.060616,0.27739 0.028214,0.415665 -5.95731,25.3561 -7.25324,57.4045 -9.33335,80.8636 -0.606468,6.83942 -1.89809,13.027 -2.15426,17.9492"/>
</g>
<path style="fill:#fff;stroke-width:.432" id="path16018" d="m 157.5803,329.0919 l -11.7269,-115.698 -61.5731,-.6027 c -0.806602,3.17952 -4.18777,9.68593 -0.322701,17.9589 -5.32399,32.6762 -8.63883,65.7802 -7.92118,98.261 l 81.5439,.0809 z "/>
<path style="fill:#fac53a;stroke-width:.216" id="path10201" d="m 76.0416,329.2396 c 63.0211,-10.2824 74.5124,-56.3973 69.8118,-115.846 l -57.4087,-9.8501 c -5.44641,8.79068 -8.59933,20.7421 -4.50613,27.1694 -5.33647,32.7528 -8.63457,65.9701 -7.897,98.5264 z "/>
</g>
</g>
<g id="g5548">
<g id="g6641">
<g style="fill-rule:evenodd">
<path style="fill:#fff;stroke:#000;stroke-linejoin:round;stroke-linecap:round" id="path6643" d="m 160.082,97.3363 l -22.9038,-4.4458 -32.4186,-2.5093 -24.9617,5.0092 c 4.69159,22.9807 20.7471,31.198 39.3483,31.5988 17.6179,0.377533 25.846,-4.01419 31.5986,-9.94425 5.46793,-5.63658 8.37221,-14.479 9.33722,-19.7086 z "/>
<g style="fill:none">
<path style="stroke:#04a;stroke-linejoin:round;stroke-width:17.82" id="path6645" d="m 150.5144,95.4776 c -3.45271,16.5729 -13.4128,22.7127 -31.768,22.0116 -18.4005,-0.702805 -27.5592,-12.167 -28.6813,-23.2959 0.005737,-0.150574 0.010757,-0.370216 -0.08046,-0.762817"/>
<path style="stroke:#308d57;stroke-width:13.523" id="path6647" d="m 141.7804,93.8906 c -3.35843,12.61 -10.697,15.3441 -22.6778,14.894 -11.194,-0.420555 -19.4906,-7.54227 -19.4081,-16.4755 0.029625,-0.340164 -0.094719,-0.563713 -0.07016,-0.766495"/>
<path style="stroke:#c13c1b;stroke-width:10.935" id="path6649" d="m 147.5039,95.0818 c -2.52281,11.6071 -8.86961,20.282 -28.536,19.446 -17.1192,-0.727707 -25.3321,-11.9682 -25.6611,-21.3614 0.010963,-0.042252 0.011642,-0.240547 -0.031746,-0.438705"/>
<g style="stroke:#04a;stroke-width:16.038">
<path id="path6651" d="m 138.9325,93.271 c -1.70023,5.50503 -3.59807,13.735 -19.8235,12.5429 -10.6298,-0.780998 -15.7662,-6.93397 -16.1674,-12.6744 -0.032433,-0.652473 -0.028183,-2.10098 -0.109245,-2.29133"/>
<path id="path6653" d="m 144.7136,94.3808 c -3.39679,15.6771 -15.3831,17.9011 -25.9266,17.2929 -14.324,-0.829964 -22.0305,-9.43894 -22.4275,-18.5522 -0.012573,-0.166809 -0.009659,-0.790939 -0.09137,-1.0441"/>
</g>
<path style="stroke:#fac53a;stroke-width:40" id="path6655" d="m 156.2212,96.6903 c -3.75114,17.5925 -13.8594,27.1813 -36.7272,26.3916 -0.089615,-0.003098 -0.17942,-0.006363 -0.269463,-0.009781 -0.002632,-8.4e-05 -0.005257,-0.000175 -0.007935,-0.000305 -30.3539,-1.15242 -34.1937,-23.2094 -35.2951,-28.3447"/>
<path style="stroke:#000;stroke-linejoin:round;stroke-linecap:round;stroke-width:2" id="path6657" d="m 160.082,97.3363 l -22.9038,-4.4458 -32.4186,-2.5093 -24.9617,5.0092 c 4.69159,22.9807 20.7471,31.198 39.3483,31.5988 17.6179,0.377533 25.846,-4.01419 31.5986,-9.94425 5.46793,-5.63658 8.37221,-14.479 9.33722,-19.7086 z "/>
<g style="stroke:#c13c1b" id="g6659">
<path id="path6661" d="m 110.2881,123.7908 c 0.439461,-1.30228 0.171692,-3.59496 -0.179329,-5.09688 -1.09743,1.08318 -2.62105,2.89188 -3.00554,4.12354 -0.739494,2.3679 2.43677,3.18709 3.18487,0.973343 z "/>
<path id="path6663" d="m 109.8768,123.6331 c 0.325394,-0.964584 0.129753,-2.6618 -0.127968,-3.77354 -0.810822,0.802856 -1.93667,2.14323 -2.22143,3.05541 -0.547729,1.75378 1.79542,2.35772 2.3494,0.718124 z "/>
<g style="stroke-linejoin:round;stroke-linecap:round">
<path id="path6665" d="m 109.8817,123.5847 c -0.123291,-0.201942 -0.453781,-0.609833 -1.0208,-0.779266 -0.567032,-0.169426 -0.951149,-0.065605 -1.27146,0.072632"/>
<path id="path6667" d="m 109.9918,121.8406 c -0.16713,-0.204193 -0.535889,-0.40374 -0.717186,-0.455231 -0.196289,-0.055939 -0.613846,-0.040802 -0.806435,0.010803"/>
</g>
</g>
</g>
</g>
<g id="g6669">
<g style="stroke:#c13c1b;fill-rule:evenodd;fill:none" id="g6671">
<path id="path6673" d="m 114.2671,124.3777 c 0.307411,-1.33747 -0.187782,-3.5942 -0.687004,-5.05607 -0.984245,1.18124 -2.32025,3.12466 -2.58003,4.38666 -0.499756,2.42631 2.74331,2.94308 3.26703,0.669403 z "/>
<path id="path6675" d="m 113.8419,124.2595 c 0.227684,-0.990623 -0.136421,-2.66148 -0.503845,-3.74376 -0.726852,0.875313 -1.71372,2.3152 -1.90615,3.24987 -0.370201,1.79701 2.02226,2.17786 2.41,0.493889 z "/>
<g style="stroke-linejoin:round;stroke-linecap:round">
<path id="path6677" d="m 113.8419,124.2108 c -0.142883,-0.189407 -0.512505,-0.564308 -1.09377,-0.679649 -0.581261,-0.115326 -0.953224,0.024117 -1.25819,0.191818"/>
<path id="path6679" d="m 113.7776,122.4646 c -0.186714,-0.187523 -0.5737,-0.351471 -0.759247,-0.385689 -0.200958,-0.037224 -0.615013,0.017105 -0.801552,0.086571"/>
</g>
</g>
</g>
<g style="fill-rule:evenodd;fill:none;stroke:#c13c1b">
<g id="g6681">
<path id="path6683" d="m 106.2301,122.7306 c 0.570518,-1.25346 0.538696,-3.56059 0.343132,-5.08896 -1.20289,0.972008 -2.90406,2.62486 -3.41266,3.81335 -0.978157,2.2849 2.09857,3.40628 3.06953,1.2756 z "/>
<path id="path6685" d="m 105.8369,122.534 c 0.422485,-0.928421 0.401512,-2.63611 0.258827,-3.7672 -0.888931,0.720726 -2.14644,1.9459 -2.52313,2.8261 -0.724487,1.6923 1.54533,2.5192 2.2643,0.941093 z "/>
<g style="stroke-linejoin:round;stroke-linecap:round">
<path id="path6687" d="m 105.8467,122.4863 c -0.102058,-0.212852 -0.389145,-0.650566 -0.93605,-0.873833 -0.54686,-0.223259 -0.939705,-0.15699 -1.27258,-0.050323"/>
<path id="path6689" d="m 106.1348,120.7615 c -0.145416,-0.219307 -0.49192,-0.453423 -0.667038,-0.522133 -0.189606,-0.074593 -0.606651,-0.099792 -0.803566,-0.067009"/>
</g>
</g>
<g id="g6691">
<path id="path6693" d="m 122.2496,124.7301 c 0.025284,-1.37013 -0.925552,-3.48484 -1.71628,-4.82008 -0.720596,1.34866 -1.62856,3.51242 -1.6227,4.79936 0.011024,2.47428 3.29498,2.35014 3.33897,0.020721 z "/>
<path id="path6695" d="m 121.8086,124.6969 c 0.018616,-1.01481 -0.682755,-2.58104 -1.26609,-3.56997 -0.531532,0.998886 -1.20134,2.60145 -1.19698,3.55459 0.008133,1.83257 2.43063,1.74062 2.46307,0.015381 z "/>
<g style="stroke-linejoin:round;stroke-linecap:round">
<path id="path6697" d="m 121.7987,124.6492 c -0.17907,-0.157799 -0.618515,-0.453247 -1.21184,-0.453247 -0.593277,0 -0.928886,0.208931 -1.19312,0.432533"/>
<path id="path6699" d="m 121.3753,122.9509 c -0.221672,-0.14743 -0.63459,-0.232834 -0.82341,-0.230278 -0.204597,0.002602 -0.599045,0.136307 -0.767479,0.240639"/>
</g>
</g>
<g id="g6701">
<path id="path6703" d="m 126.0951,124.6652 c -0.030281,-1.37004 -1.06612,-3.44679 -1.91034,-4.75079 -0.665367,1.37513 -1.48492,3.5719 -1.42687,4.85761 0.11129,2.47195 3.38769,2.22247 3.33721,-0.106819 z "/>
<path id="path6705" d="m 125.653,124.6488 c -0.022522,-1.01473 -0.786835,-2.55296 -1.40981,-3.51884 -0.490631,1.01841 -1.09495,2.64531 -1.05197,3.59754 0.082405,1.83085 2.49932,1.64645 2.46178,-0.078697 z "/>
<g style="stroke-linejoin:round;stroke-linecap:round">
<path id="path6707" d="m 125.6411,124.6016 c -0.185318,-0.150833 -0.636406,-0.429268 -1.22926,-0.406609 -0.592827,0.022659 -0.919708,0.24424 -1.17466,0.47776"/>
<path id="path6709" d="m 125.1493,122.9207 c -0.22747,-0.13884 -0.643547,-0.208412 -0.832108,-0.198647 -0.204353,0.010422 -0.593071,0.159088 -0.757133,0.269768"/>
</g>
</g>
</g>
<g id="g6711">
<g style="stroke:#c13c1b;fill-rule:evenodd;fill:none" id="g6713">
<path id="path6715" d="m 118.2228,124.7096 c 0.183098,-1.35879 -0.517914,-3.5635 -1.1497,-4.97625 -0.871529,1.26189 -2.02329,3.31342 -2.16585,4.59291 -0.274422,2.45993 3.00323,2.69334 3.31555,0.383339 z "/>
<path id="path6717" d="m 117.7885,124.6287 c 0.135536,-1.0064 -0.380882,-2.639 -0.846474,-3.68508 -0.643433,0.934853 -1.49377,2.45458 -1.59935,3.4022 -0.203285,1.82194 2.21462,1.99376 2.44582,0.282883 z "/>
<g style="stroke-linejoin:round;stroke-linecap:round">
<path id="path6719" d="m 117.784,124.5802 c -0.159737,-0.176247 -0.562416,-0.517593 -1.15196,-0.582039 -0.589554,-0.064461 -0.947189,0.106689 -1.23553,0.300171"/>
<path id="path6721" d="m 117.5591,122.8466 c -0.203201,-0.170586 -0.603706,-0.300316 -0.791672,-0.318291 -0.203575,-0.019638 -0.611008,0.070366 -0.790405,0.155746"/>
</g>
</g>
</g>
<g style="fill-rule:evenodd;fill:none;stroke:#c13c1b">
<g id="g6723">
<path id="path6725" d="m 152.3555,111.1629 c -1.16505,-0.774002 -3.50749,-1.16625 -5.09122,-1.25956 0.764084,1.32588 2.12648,3.25191 3.23702,3.95499 2.13498,1.35188 3.83426,-1.37865 1.8542,-2.69543 z "/>
<path id="path6727" d="m 152.0844,111.5022 c -0.862885,-0.573242 -2.5963,-0.865974 -3.76794,-0.937019 0.567078,0.980286 1.57762,2.40462 2.40008,2.92538 1.58127,1.00127 2.83447,-1.01321 1.36786,-1.98836 z "/>
<g style="stroke-linejoin:round;stroke-linecap:round">
<path id="path6729" d="m 152.0379,111.4841 c -0.234329,0.058403 -0.730225,0.252167 -1.05646,0.733086 -0.326324,0.480995 -0.331161,0.868011 -0.284088,1.20519"/>
<path id="path6731" d="m 150.3438,110.8933 c -0.248779,0.098564 -0.549347,0.386345 -0.651047,0.540886 -0.110214,0.167236 -0.212158,0.560623 -0.214981,0.754501"/>
</g>
</g>
<g id="g6733">
<path id="path6735" d="m 154.1864,107.955 c -1.23766,-0.659317 -3.60849,-0.826538 -5.19402,-0.768578 0.894455,1.24663 2.44492,3.03373 3.6212,3.62757 2.26134,1.14207 3.67645,-1.73711 1.57281,-2.85899 z "/>
<path id="path6737" d="m 153.9509,108.3185 c -0.916687,-0.488228 -2.67131,-0.614571 -3.84453,-0.573624 0.663406,0.921562 1.81303,2.24279 2.6842,2.68263 1.67482,0.845879 2.71837,-1.27814 1.16032,-2.10901 z "/>
<g style="stroke-linejoin:round;stroke-linecap:round">
<path id="path6739" d="m 153.9028,108.3049 c -0.227264,0.080429 -0.701172,0.32048 -0.977295,0.830231 -0.276062,0.509674 -0.241776,0.895287 -0.160843,1.22636"/>
<path id="path6741" d="m 152.1571,107.8783 c -0.237595,0.12178 -0.507645,0.43679 -0.593185,0.600197 -0.092819,0.17701 -0.154495,0.578125 -0.137756,0.771431"/>
</g>
</g>
<g id="g6743">
<path id="path6745" d="m 150.1256,114.2509 c -1.03413,-0.932915 -3.29094,-1.65751 -4.84297,-1.9774 0.553406,1.42108 1.60701,3.52171 2.59804,4.37663 1.90524,1.64383 4.00235,-0.812378 2.24493,-2.39923 z "/>
<path id="path6747" d="m 149.8057,114.5475 c -0.765945,-0.690948 -2.43561,-1.22958 -3.5835,-1.46825 0.41127,1.05099 1.19344,2.60485 1.92737,3.23809 1.41109,1.21751 2.95779,-0.594666 1.65613,-1.76984 z "/>
<g style="stroke-linejoin:round;stroke-linecap:round">
<path id="path6749" d="m 149.7625,114.5229 c -0.240662,0.024086 -0.760635,0.14444 -1.15666,0.573166 -0.396088,0.428802 -0.459885,0.810852 -0.464752,1.15108"/>
<path id="path6751" d="m 148.1771,113.6951 c -0.261063,0.061729 -0.602203,0.303139 -0.726379,0.44136 -0.134506,0.149559 -0.295319,0.523941 -0.327728,0.715302"/>
</g>
</g>
<g id="g6753">
<path id="path6755" d="m 156.8775,100.9925 c -1.35556,-0.382874 -3.70725,-0.0467 -5.242,0.34391 1.15186,1.02856 3.06497,2.44636 4.34599,2.77828 2.46277,0.638428 3.20036,-2.47024 0.896011,-3.12219 z "/>
<path id="path6757" d="m 156.7289,101.3969 c -1.004,-0.283554 -2.74504,-0.03714 -3.88112,0.249962 0.853683,0.759781 2.27132,1.80731 3.22009,2.0532 1.824,0.472893 2.36777,-1.82043 0.661026,-2.30316 z "/>
<g style="stroke-linejoin:round;stroke-linecap:round">
<path id="path6759" d="m 156.6789,101.3937 c -0.203857,0.126335 -0.612808,0.460548 -0.768356,1.01628 -0.155548,0.555725 -0.035843,0.924919 0.117203,1.231"/>
<path id="path6761" d="m 154.8794,101.345 c -0.204727,0.16893 -0.397888,0.533371 -0.444855,0.710938 -0.050995,0.192322 -0.021515,0.59684 0.03804,0.781967"/>
</g>
</g>
<g id="g6763">
<path id="path6765" d="m 157.8153,97.3835 c -1.3714,-0.325478 -3.70587,0.109322 -5.22172,0.564133 1.19673,0.979141 3.17133,2.31511 4.46596,2.59283 2.48897,0.534203 3.08708,-2.60258 0.755768,-3.15697 z "/>
<path id="path6767" d="m 157.6849,97.7938 c -1.01572,-0.241035 -2.74411,0.078392 -3.86632,0.413017 0.886795,0.723152 2.34987,1.71005 3.30873,1.91579 1.84345,0.395714 2.28427,-1.91833 0.557587,-2.3288 z "/>
<g style="stroke-linejoin:round;stroke-linecap:round">
<path id="path6769" d="m 157.6348,97.7928 c -0.198029,0.134796 -0.59169,0.485909 -0.722275,1.04765 -0.1306,0.561745 0.005478,0.92556 0.172073,1.22491"/>
<path id="path6771" d="m 155.8348,97.8198 c -0.196976,0.177376 -0.373703,0.549599 -0.412704,0.728989 -0.042389,0.194275 0.005142,0.597183 0.072952,0.779617"/>
</g>
</g>
<g id="g6773">
<path id="path6775" d="m 155.7117,104.5848 c -1.31181,-0.506477 -3.68584,-0.389206 -5.25195,-0.142265 1.0457,1.13037 2.81102,2.71859 4.05362,3.16743 2.38898,0.863213 3.42822,-2.16314 1.19833,-3.02517 z "/>
<path id="path6777" d="m 155.5241,104.9736 c -0.971619,-0.375038 -2.72891,-0.290787 -3.88803,-0.109985 0.775253,0.835251 2.08365,2.00912 3.004,2.34156 1.76935,0.639328 2.53563,-1.59325 0.884033,-2.23158 z "/>
<g style="stroke-linejoin:round;stroke-linecap:round">
<path id="path6779" d="m 155.4746,104.9659 c -0.215332,0.106918 -0.655197,0.401772 -0.864563,0.940636 -0.209381,0.538818 -0.126434,0.917358 -0.00412,1.23624"/>
<path id="path6781" d="m 153.6881,104.751 c -0.220337,0.149277 -0.44838,0.494156 -0.512558,0.666542 -0.069672,0.186752 -0.080002,0.592163 -0.038849,0.78196"/>
</g>
</g>
<g id="g6783">
<path id="path6785" d="m 144.3786,119.3143 c -0.717514,-1.18019 -2.66826,-2.49866 -4.06218,-3.23438 0.113541,1.51524 0.50708,3.82014 1.20627,4.91362 1.34399,2.10246 4.07492,0.327759 2.85591,-1.67924 z "/>
<path id="path6787" d="m 143.9849,119.5101 c -0.531479,-0.874031 -1.97386,-1.852 -3.00427,-2.39807 0.085922,1.12113 0.379684,2.82691 0.897491,3.63676 0.995438,1.55719 3.00977,0.247696 2.10678,-1.23869 z "/>
<g style="stroke-linejoin:round;stroke-linecap:round">
<path id="path6789" d="m 143.9507,119.4746 c -0.237717,-0.043472 -0.771469,-0.071861 -1.27696,0.229668 -0.505478,0.301514 -0.678726,0.65007 -0.783218,0.974876"/>
<path id="path6791" d="m 142.6739,118.2428 c -0.268372,-0.012962 -0.666229,0.12413 -0.825745,0.222252 -0.172882,0.106216 -0.436829,0.420601 -0.524048,0.595093"/>
</g>
</g>
<g id="g6793">
<path id="path6795" d="m 147.4566,116.9656 c -0.905624,-1.05128 -3.05115,-2.04451 -4.5497,-2.55056 0.365692,1.47716 1.13998,3.68932 2.01288,4.65799 1.67818,1.86252 4.07564,-0.319412 2.53682,-2.10743 z "/>
<path id="path6797" d="m 147.1009,117.2209 c -0.670746,-0.77861 -2.25772,-1.51599 -3.3658,-1.89233 0.27243,1.09273 0.847916,2.72943 1.49446,3.44685 1.24281,1.37952 3.01114,-0.230339 1.87134,-1.55452 z "/>
<g style="stroke-linejoin:round;stroke-linecap:round">
<path id="path6799" d="m 147.0612,117.1913 c -0.241745,-0.005409 -0.773239,0.050835 -1.22147,0.428047 -0.448303,0.377266 -0.560944,0.748558 -0.60965,1.08552"/>
<path id="path6801" d="m 145.5952,116.1773 c -0.266953,0.029503 -0.636597,0.227531 -0.777573,0.349579 -0.152756,0.132034 -0.360641,0.483925 -0.41745,0.669823"/>
</g>
</g>
<g id="g6803">
<path id="path6805" d="m 140.9892,121.1565 c -0.58168,-1.24866 -2.37381,-2.76444 -3.67741,-3.64235 -0.056198,1.51824 0.077896,3.85098 0.650955,5.01152 1.10153,2.23137 4.01439,0.754166 3.02646,-1.36917 z "/>
<path id="path6807" d="m 140.576,121.3098 c -0.430817,-0.924789 -1.75568,-2.04858 -2.71905,-2.69978 -0.039688,1.12357 0.062103,2.85017 0.486496,3.70972 0.815765,1.65269 2.96439,0.562607 2.23256,-1.00995 z "/>
<g style="stroke-linejoin:round;stroke-linecap:round">
<path id="path6809" d="m 140.546,121.2709 c -0.231461,-0.068207 -0.758942,-0.152519 -1.29507,0.094078 -0.536133,0.246605 -0.747269,0.574936 -0.88739,0.88681"/>
<path id="path6811" d="m 139.4141,119.9121 c -0.265305,-0.041107 -0.676147,0.053368 -0.845718,0.134163 -0.183701,0.087402 -0.481155,0.372185 -0.587311,0.536499"/>
</g>
</g>
<g id="g6813">
<path id="path6815" d="m 133.6717,123.6341 c -0.268967,-1.34525 -1.65221,-3.22168 -2.71179,-4.36802 -0.415771,1.46465 -0.840103,3.76442 -0.558517,5.02202 0.541031,2.41792 3.72655,1.63333 3.27031,-0.653999 z "/>
<path id="path6817" d="m 133.2333,123.6907 c -0.199234,-0.996376 -1.22104,-2.3867 -2.00352,-3.23619 -0.305832,1.08437 -0.617462,2.78711 -0.408951,3.71852 0.400665,1.79085 2.75049,1.2117 2.41248,-0.48233 z "/>
<g style="stroke-linejoin:round;stroke-linecap:round">
<path id="path6819" d="m 133.2133,123.646 c -0.208939,-0.118172 -0.702133,-0.318413 -1.28244,-0.198608 -0.580292,0.119812 -0.863831,0.391945 -1.07433,0.663994"/>
<path id="path6821" d="m 132.4352,122.0704 c -0.248352,-0.099449 -0.670609,-0.099594 -0.854767,-0.058952 -0.199554,0.043854 -0.556702,0.254288 -0.699066,0.390343"/>
</g>
</g>
<g id="g6823">
<path id="path6825" d="m 137.3687,122.6106 c -0.403214,-1.3133 -1.96892,-3.04941 -3.13895,-4.08964 -0.266174,1.4971 -0.456772,3.82612 -0.049866,5.05097 0.782135,2.35497 3.87334,1.27174 3.18881,-0.961334 z "/>
<path id="path6827" d="m 136.9379,122.7085 c -0.298691,-0.972641 -1.4556,-2.25931 -2.31995,-3.03042 -0.195114,1.10816 -0.33371,2.83234 -0.032318,3.73953 0.579239,1.7442 2.85942,0.944771 2.35226,-0.709106 z "/>
<g style="stroke-linejoin:round;stroke-linecap:round">
<path id="path6829" d="m 136.9136,122.666 c -0.219879,-0.097832 -0.730835,-0.250298 -1.29633,-0.075958 -0.565445,0.174324 -0.820175,0.472061 -1.00226,0.762825"/>
<path id="path6831" d="m 135.9805,121.1718 c -0.257248,-0.075424 -0.677429,-0.035492 -0.856613,0.022415 -0.194168,0.062645 -0.528442,0.305962 -0.656387,0.454903"/>
</g>
</g>
<g id="g6833">
<path id="path6835" d="m 129.9594,124.3011 c -0.120209,-1.36538 -1.29031,-3.37382 -2.21846,-4.62292 -0.573692,1.41349 -1.24732,3.6565 -1.10497,4.93601 0.273399,2.46003 3.52676,2.00834 3.32343,-0.313087 z "/>
<path id="path6837" d="m 129.5172,124.3121 c -0.089111,-1.01128 -0.952866,-2.49908 -1.63801,-3.42445 -0.422752,1.0467 -0.919014,2.70768 -0.813599,3.65532 0.202477,1.82201 2.60235,1.48845 2.45161,-0.230865 z "/>
<g style="stroke-linejoin:round;stroke-linecap:round">
<path id="path6839" d="m 129.5022,124.2657 c -0.194839,-0.139061 -0.663284,-0.389015 -1.25346,-0.329727 -0.590126,0.059288 -0.901787,0.300652 -1.1409,0.549461"/>
<path id="path6841" d="m 128.9009,122.6187 c -0.23613,-0.124496 -0.655914,-0.168175 -0.843445,-0.146767 -0.203262,0.023033 -0.581413,0.195457 -0.737877,0.316071"/>
</g>
</g>
<g id="g6843">
<path id="path6845" d="m 98.7991,119.6376 c 0.830467,-1.10819 1.30149,-3.36981 1.44292,-4.90376 -1.38726,0.703423 -3.40976,1.97015 -4.16555,3.02753 -1.45332,2.03277 1.30991,3.75971 2.72263,1.87622 z "/>
<path id="path6847" d="m 98.4575,119.3649 c 0.615013,-0.820847 0.966171,-2.49431 1.07284,-3.62912 -1.02573,0.522179 -2.52147,1.46186 -3.08123,2.24496 -1.07642,1.50556 0.962181,2.77921 2.00839,1.38416 z "/>
<g style="stroke-linejoin:round;stroke-linecap:round">
<path id="path6849" d="m 98.4775,119.3203 c -0.053421,-0.228966 -0.238785,-0.715683 -0.724716,-1.04604 -0.485939,-0.330368 -0.884354,-0.346146 -1.2329,-0.31012"/>
<path id="path6851" d="m 99.1345,117.6934 c -0.094391,-0.244186 -0.382149,-0.54406 -0.538338,-0.647133 -0.169113,-0.111778 -0.571213,-0.221916 -0.770836,-0.230255"/>
</g>
</g>
<g id="g6853">
<path id="path6855" d="m 102.341,121.408 c 0.72847,-1.17383 0.99604,-3.46648 1.00016,-5.00659 -1.31936,0.817337 -3.2213,2.24925 -3.87993,3.36616 -1.26659,2.14727 1.64032,3.63557 2.87977,1.64043 z "/>
<path id="path6857" d="m 101.9763,121.165 c 0.539497,-0.869446 0.740067,-2.56612 0.745163,-3.70565 -0.975296,0.606415 -2.38165,1.66825 -2.86945,2.49546 -0.938141,1.59033 1.20642,2.68792 2.12429,1.21019 z "/>
<g style="stroke-linejoin:round;stroke-linecap:round">
<path id="path6859" d="m 101.9923,121.1188 c -0.073639,-0.223602 -0.301712,-0.692924 -0.815308,-0.981216 -0.513573,-0.288284 -0.911896,-0.270531 -1.25592,-0.205353"/>
<path id="path6861" d="m 102.5017,119.4429 c -0.115837,-0.235336 -0.429245,-0.509911 -0.594055,-0.599472 -0.178444,-0.097153 -0.588875,-0.173088 -0.788483,-0.164619"/>
</g>
</g>
</g>
<g id="g6863">
<g style="stroke:#c13c1b;fill-rule:evenodd;fill:none" id="g6865">
<path id="path6867" d="m 95.4166,117.4799 c 0.992683,-0.974388 1.80871,-3.14153 2.18617,-4.63739 -1.48048,0.492928 -3.6762,1.45006 -4.5872,2.3851 -1.75169,1.79754 0.712585,3.90816 2.40104,2.25229 z "/>
<path id="path6869" d="m 95.1211,117.1603 c 0.735199,-0.721733 1.34159,-2.32491 1.62285,-3.43126 -1.09498,0.366531 -2.71927,1.07722 -3.39398,1.76972 -1.29741,1.33131 0.520714,2.88803 1.77113,1.66154 z "/>
<g style="stroke-linejoin:round;stroke-linecap:round">
<path id="path6871" d="m 95.1478,117.1192 c -0.017334,-0.234154 -0.125183,-0.742378 -0.554428,-1.13992 -0.42926,-0.397522 -0.820663,-0.471268 -1.17084,-0.486542"/>
<path id="path6873" d="m 96.0493,115.6067 c -0.055496,-0.25518 -0.293518,-0.593666 -0.431969,-0.718353 -0.149879,-0.135193 -0.530388,-0.302765 -0.726425,-0.340149"/>
</g>
</g>
</g>
<g style="fill-rule:evenodd;fill:none;stroke:#c13c1b">
<g id="g6875">
<path id="path6877" d="m 89.596,112.023 c 1.22887,-0.674568 2.62303,-2.54343 3.40657,-3.88261 -1.56284,0.082214 -3.9443,0.421593 -5.08352,1.07994 -2.19048,1.26551 -0.412834,3.94863 1.67695,2.80267 z "/>
<path id="path6879" d="m 89.4015,111.6374 c 0.910141,-0.49968 1.9441,-1.88147 2.52566,-2.87138 -1.15646,0.062683 -2.91888,0.316307 -3.76264,0.803864 -1.62237,0.937263 -0.310715,2.91637 1.23698,2.06752 z "/>
<g style="stroke-linejoin:round;stroke-linecap:round">
<path id="path6881" d="m 89.4388,111.6048 c 0.049133,-0.229866 0.088226,-0.747375 -0.212997,-1.2435 -0.301262,-0.496124 -0.65712,-0.670723 -0.989723,-0.77813"/>
<path id="path6883" d="m 90.7311,110.3885 c 0.018311,-0.260201 -0.115555,-0.64888 -0.213699,-0.805489 -0.106194,-0.169762 -0.425171,-0.431725 -0.603279,-0.519608"/>
</g>
</g>
<g id="g6885">
<path id="path6887" d="m 92.3216,114.9539 c 1.11413,-0.841629 2.21197,-2.88818 2.78552,-4.32412 -1.53371,0.303001 -3.83849,0.97654 -4.86639,1.78941 -1.97643,1.56261 0.186058,3.9648 2.08088,2.53471 z "/>
<path id="path6889" d="m 92.0712,114.6 c 0.825172,-0.623421 1.64001,-2.13704 2.06628,-3.1988 -1.1346,0.226036 -2.83993,0.726906 -3.60123,1.32892 -1.46384,1.15733 0.13166,2.92915 1.53495,1.86988 z "/>
<g style="stroke-linejoin:round;stroke-linecap:round">
<path id="path6891" d="m 92.1032,114.5625 c 0.013992,-0.23436 -0.025253,-0.751862 -0.397964,-1.19994 -0.372696,-0.448059 -0.751015,-0.570313 -1.09622,-0.629395"/>
<path id="path6893" d="m 93.1985,113.1759 c -0.021049,-0.26001 -0.211975,-0.625519 -0.332664,-0.766533 -0.130608,-0.15287 -0.48558,-0.366791 -0.675003,-0.428452"/>
</g>
</g>
<g id="g6895">
<path id="path6897" d="m 87.437,108.8502 c 1.258,-0.621918 2.73477,-2.42999 3.57774,-3.73472 -1.56506,0.015968 -3.9595,0.254234 -5.12722,0.863739 -2.24522,1.17158 -0.589821,3.9274 1.54948,2.87098 z "/>
<path id="path6899" d="m 87.2601,108.4567 c 0.93174,-0.460686 2.02679,-1.79739 2.65226,-2.76175 -1.15815,0.013672 -2.93032,0.192451 -3.79515,0.643837 -1.66294,0.867706 -0.44146,2.90044 1.14289,2.11791 z "/>
<g style="stroke-linejoin:round;stroke-linecap:round">
<path id="path6901" d="m 87.2988,108.4258 c 0.059402,-0.227562 0.121712,-0.742928 -0.15696,-1.25134 -0.278671,-0.508385 -0.626343,-0.697884 -0.953796,-0.819275"/>
<path id="path6903" d="m 88.6445,107.2653 c 0.030006,-0.259178 -0.086273,-0.653145 -0.177315,-0.813774 -0.098457,-0.174088 -0.405342,-0.44931 -0.57933,-0.54464"/>
</g>
</g>
<g id="g6905">
<path id="path6907" d="m 84.2343,102.1001 c 1.35081,-0.398331 3.13107,-1.92726 4.19657,-3.06846 -1.54374,-0.250443 -3.94416,-0.423103 -5.20382,-0.021629 -2.42197,0.771606 -1.28966,3.76633 1.00725,3.09009 z "/>
<path id="path6909" d="m 84.1311,101.6826 c 1.00047,-0.295097 2.31988,-1.42489 3.10974,-2.26794 -1.14271,-0.183517 -2.91973,-0.308907 -3.85266,-0.011589 -1.79386,0.571457 -0.958191,2.7805 0.74292,2.27953 z "/>
<g style="stroke-linejoin:round;stroke-linecap:round">
<path id="path6911" d="m 84.1748,101.6587 c 0.099556,-0.213943 0.253944,-0.710739 0.071335,-1.25868 -0.182571,-0.54792 -0.490646,-0.79361 -0.79113,-0.968819"/>
<path id="path6913" d="m 85.7093,100.745 c 0.076317,-0.250069 0.032959,-0.657715 -0.027687,-0.831337 -0.065498,-0.188133 -0.317955,-0.511299 -0.472054,-0.63475"/>
</g>
</g>
<g id="g6915">
<path id="path6917" d="m 85.5708,105.5107 c 1.31365,-0.501862 2.96234,-2.16401 3.93047,-3.38422 -1.55941,-0.129883 -3.96637,-0.115753 -5.18896,0.382164 -2.35067,0.957039 -0.97538,3.85432 1.2585,3.00205 z "/>
<path id="path6919" d="m 85.4336,105.1025 c 0.972961,-0.371765 2.19512,-1.60031 2.91303,-2.50195 -1.15417,-0.094269 -2.93581,-0.08139 -3.84129,0.287354 -1.74103,0.708801 -0.726173,2.84595 0.928253,2.2146 z "/>
<g style="stroke-linejoin:round;stroke-linecap:round">
<path id="path6921" d="m 85.4751,105.0753 c 0.08165,-0.220985 0.194595,-0.728165 -0.032509,-1.26019 -0.227112,-0.532013 -0.554443,-0.753014 -0.868401,-0.904343"/>
<path id="path6923" d="m 86.9295,104.0455 c 0.055466,-0.255188 -0.021332,-0.658173 -0.096054,-0.82653 -0.080803,-0.182465 -0.359055,-0.485001 -0.52282,-0.5961"/>
</g>
</g>
<g id="g6925">
<path id="path6927" d="m 83.0268,98.5504 c 1.38711,-0.255013 3.3265,-1.58924 4.5122,-2.61259 -1.50702,-0.410149 -3.87437,-0.832382 -5.17123,-0.564728 -2.49342,0.514313 -1.69945,3.60987 0.659035,3.17732 z "/>
<path id="path6929" d="m 82.9704,98.1245 c 1.02736,-0.188934 2.46429,-1.17445 3.34296,-1.93018 -1.11574,-0.30172 -2.86856,-0.611885 -3.82903,-0.413673 -1.84676,0.380882 -1.2607,2.66435 0.486061,2.34385 z "/>
<g style="stroke-linejoin:round;stroke-linecap:round">
<path id="path6931" d="m 83.0165,98.1053 c 0.122704,-0.202301 0.331192,-0.680099 0.210365,-1.24393 -0.120789,-0.563805 -0.399879,-0.840225 -0.679199,-1.04577"/>
<path id="path6933" d="m 84.6433,97.3572 c 0.103592,-0.240662 0.105621,-0.650482 0.064583,-0.829414 -0.044273,-0.193901 -0.25946,-0.541512 -0.398994,-0.680336"/>
</g>
</g>
</g>
</g>
</g>
<g style="fill-rule:evenodd">
<path style="fill:#04a;stroke:#000;stroke-width:.432" id="path26236" d="m 71.7048,322.2887 l .8378,.2166 -.5161,8.1301 c -0.06427,12 -0.391716,24.7316 -2.90334,33.5227 l -3.6432,-5.7089 -7.0061,5.8133 c 2.11705,-21.0636 6.50105,-15.0461 13.2309,-41.9738 z "/>
<g style="stroke-linejoin:round;stroke-linecap:round">
<g style="stroke-width:.432;fill:none;stroke:#c13c1b">
<path id="path6948" d="m 68.1787,369.1671 l -4.0769,-5.6038 -5.4798,4.4817"/>
<path id="path6950" d="m 67.5048,374.033 l -3.9871,-5.4319 -5.3202,4.3118"/>
<path id="path6952" d="m 66.7553,379.1315 l -3.8153,-5.2503 -5.1671,4.1948"/>
<path id="path6954" d="m 65.9871,384.5678 l -3.7703,-5.1644 -4.9802,4.028"/>
<path id="path6956" d="m 65.3131,389.5813 l -3.6674,-5.0987 -4.9496,4.0047"/>
<path id="path6958" d="m 64.5604,394.854 l -3.4988,-4.8907 -4.803,3.9408"/>
<path id="path6960" d="m 63.731,400.0417 l -3.4057,-4.7452 -4.6806,3.8472"/>
<path id="path6962" d="m 63.0362,404.999 l -3.2885,-4.5701 -4.4968,3.707"/>
<path id="path6964" d="m 62.3961,409.6672 l -3.2195,-4.4543 -4.3437,3.5899"/>
<path id="path6966" d="m 61.8965,414.6267 l -3.3457,-4.3409 -4.2083,3.3903"/>
<path id="path6968" d="m 61.2781,419.5392 l -3.4088,-4.2094 -4.0649,3.353"/>
<path id="path6970" d="m 60.6213,424.5406 l -3.1841,-3.8777 -4.2902,3.0668"/>
<path id="path6972" d="m 59.9092,429.4578 l -3.2017,-3.8102 -4.0022,2.7964"/>
<path id="path6974" d="m 58.0739,442.2212 l -3.0862,-3.4976 -3.7747,2.3691"/>
<path id="path27707" d="m 58.683,438.2653 l -3.0405,-3.7579 -3.9485,2.6398"/>
<path id="path27709" d="m 59.2298,433.7808 l -3.0934,-3.4968 -3.8691,2.5252"/>
<path id="path27711" d="m 57.4575,446.6608 l -3.1157,-3.5661 -3.7002,2.6872"/>
<path id="path27713" d="m 56.8476,450.8289 l -2.9248,-3.3932 -3.8286,2.3692"/>
<path id="path27755" d="m 55.7919,459.098 l -3.0862,-3.3932 -3.9899,2.3692"/>
<path id="path27757" d="m 56.2396,454.8961 l -2.8944,-3.214 -3.9147,2.4314"/>
<path id="path27759" d="m 55.5591,460.6189 l -7.071,-1.0366"/>
</g>
<g style="stroke:#000">
<g id="g22363">
<path style="fill:#025" id="path2718" d="m 61.4065,319.2611 c -1.87831,-0.595703 -3.41731,-0.367859 -4.89851,0 l .8637,-22.811 -11.1907,.7254 c 0.342258,-1.6337 0.458031,-3.26743 0,-4.90109 l 11.1907,.7618 c -2.34365,-4.06619 -5.63018,-7.67197 -6.81205,-13.6185 -2.38851,-12.0176 3.92458,-11.5128 8.30413,-11.5513 4.76816,-0.04187 11.8068,0.681671 8.87838,12.0634 -1.34695,5.2352 -4.63062,9.35239 -7.2797,13.1064 l 12.5762,-.7618 c -0.422081,1.63367 -0.381294,3.2674 0,4.90109 l -12.5762,-.7254 .944,22.811 z "/>
<path style="fill:#fff" id="path2720" d="m 60.4625,289.6775 c 2.41697,-3.18518 4.73624,-6.29758 5.3203,-10.4061 1.18071,-8.30551 -3.26213,-9.23321 -6.8564,-9.25436 -3.19568,-0.018402 -7.9187,0.421326 -5.80441,9.18127 0.991951,4.10986 2.53495,7.80719 4.24974,10.4792 1.07341,1.41077 2.22629,1.18002 3.09077,0 z "/>
</g>
<path style="fill:#a13c2a;stroke-width:.432" id="path2716" d="m 50.6681,254.1671 l 13.8289,-.3658 c 0.691994,3.35783 2.40087,6.9131 4.06953,10.4606 2.20586,3.39832 2.34923,7.73535 1.73338,11.8505 l .2261,3.877 c -6.21129,0.721619 -0.210197,-7.32489 -4.1449,-10.3143 l -.6029,5.5594 c -1.12631,1.04056 -2.23651,1.86395 -3.16524,0.219482 -1.10527,1.2016 -2.21062,1.11481 -3.31594,-0.219482 -1.35139,1.6962 -2.45463,0.502228 -3.61731,0 -1.23904,0.940826 -2.55065,1.27508 -3.39133,-0.877808 -0.244381,-5.87201 -2.0542,-11.5745 -1.62025,-20.1896 z "/>
</g>
</g>
</g>
<g id="g13453">
<g style="stroke-linecap:round;fill-rule:evenodd;stroke-linejoin:round;stroke:#000">
<g id="g31785">
<path style="fill:#fac53a" id="path31787" d="m 64.6147,246.2307 l -14.5072,.1097 .6029,8.8879 13.8289,-.5121 .0754,-8.4855 z "/>
<path style="fill:#04a" id="path31789" d="m 64.6147,247.5108 l -14.3941,.1829 .1481,2.7459 14.2084,-.2168 .0377,-2.712 z "/>
</g>
<path style="fill:#fac53a" id="path13439" d="m 64.7676,246.1937 l -14.5452,.1466 .4127,8.8509 14.0951,-.4751 .0374,-8.5225 z "/>
<g style="fill:#04a">
<path id="path13441" d="m 64.7499,247.5108 l -14.5286,.1829 .1749,2.7459 14.316,-.2169 .0377,-2.7119 z "/>
<path id="path13451" d="m 64.723,251.0537 l -14.2756,.209 .148,2.746 14.0899,-.2429 .0377,-2.712 z "/>
</g>
</g>
</g>
<g style="fill-rule:evenodd">
<g style="stroke:#000;stroke-linejoin:round;stroke-linecap:round">
<path style="fill:#a13c2a;stroke-width:.432" id="path2694" d="m 211.9499,238.0353 c 7.14807,1.0882 15.8183,3.67323 21.6011,12.8389 l 3.5626,2.142 c -1.88449,4.0246 -5.5994,1.71478 -6.78284,-0.387207 0.70163,1.85835 0.332123,3.04628 -1.92943,3.05028 0.478836,1.73317 -0.150986,2.73702 -2.24908,2.77516 1.11748,1.70804 -0.206802,3.21341 -2.14243,2.86682 0.680862,2.18628 -0.526337,3.11426 -1.72231,3.13605 -3.19095,1.33154 -17.4367,-15.8333 -18.8557,-17.3305"/>
<path style="fill:#025;stroke-width:.214" id="path2722" d="m 230.3414,108.3859 c -0.499359,-4.8169 0.281525,-9.04628 -1.75633,-14.9032 -2.48689,-7.14735 -4.97118,-8.38656 -7.86739,-12.1422 -1.09701,-0.870132 -2.90294,0.039131 -2.31059,1.69355 3.35883,3.03693 5.75655,7.18339 6.73587,9.55011 -1.00797,-0.110611 -5.86024,-0.47213 -5.96901,4.40838 l .0167,333.2688 c -5.40245,6.01791 -0.75885,10.6432 -1.04912,15.8717 0.552261,0.25827 0.990448,0.093018 1.04651,-0.36261 0.723312,-5.72138 -1.28713,-8.21634 0.036118,-11.1914 0.632721,-1.42239 1.81641,-1.35611 2.50624,-0.145294 1.48608,2.60877 -0.595764,4.21344 -0.052643,11.2811 0.039551,0.514465 0.688766,0.662933 0.953506,0.354065 0.338455,-5.25232 4.07893,-9.67981 -0.872406,-15.813 l .0057,-332.8647 c 0.279266,-2.72292 3.31387,-3.01476 4.82114,0.061996 1.76688,3.60684 1.01793,7.34563 1.49155,11.0175 0.784698,2.365 2.39729,1.45367 2.26419,-0.084816 z "/>
<g id="g31791">
<path style="fill:#fac53a" id="path31793" d="m 211.694,229.1272 l -14.9074,8.5373 6.4413,9.4372 12.2408,-8.6319 -3.7747,-9.3426 z "/>
<g style="fill:#04a">
<path id="path31795" d="m 212.1732,230.3043 l -14.5479,8.8097 1.888,2.6864 13.7057,-8.8173 -1.0458,-2.6788 z "/>
<path id="path13461" d="m 213.7987,234.4301 l -13.1858,8.844 2.0402,2.9448 12.3436,-8.8517 -1.198,-2.9372 z "/>
</g>
</g>
<g style="stroke-width:.432">
<path style="fill:#a13c2a" id="path17387" d="m 221.3317,245.346 c -2.55426,-1.90697 -5.60342,-1.61929 -3.1991,1.20761 -2.07143,-1.91446 -6.32806,-1.58672 -2.10199,2.33841 -3.85486,-2.25055 -4.0695,0.77211 -2.09351,2.47635 -2.59996,-1.54932 -3.29782,0.884918 -0.647598,3.36128 2.64127,3.19235 5.73715,6.45596 8.72424,9.62811 0.055405,0.056854 0.129837,0.092834 0.248032,0.080994 1.19588,-0.021759 2.38486,-0.838593 1.7039,-3.02484 1.93568,0.346588 3.25998,-1.15878 2.14252,-2.86682 2.09805,-0.038116 2.72783,-1.04205 2.24908,-2.77518 2.26144,-0.003983 2.85327,-0.862183 2.15157,-2.72046 -0.092941,-0.155746 -0.18367,-0.275436 -0.272583,-0.366119 -3.19055,-3.35074 -6.12524,-5.75824 -8.82306,-7.29268 m -.5802,-.3441 c 0.202805,0.829987 -0.652069,1.961 -2.09648,1.9829 m -.5857,-.3593 c 0.579193,0.974976 -1.11685,2.3046 -2.03714,2.25226 m -.2372,-.1341 c 0.852386,1.02293 -0.39798,3.18668 -2.22601,2.27931 m .3188,.3423 c 0.492722,1.08542 -0.408371,2.20471 -1.41232,2.43957 m 13.5421,4.6934 c -0.372482,-0.255249 -10.0909,-9.63974 -10.0909,-9.63974 m 12.2553,6.8118 c -0.531738,-0.522858 -10.1698,-9.17792 -10.1698,-9.17792 m 5.8274,14.8571 l -10.0549,-10.0811"/>
<path style="fill:#fff" id="path17436" d="m 218.1508,246.6722 c 0.169189,0.113525 0.196915,0.3396 0.585739,0.359268 1.76042,0.003525 2.17787,-1.68475 2.11127,-1.98691 -2.41425,-1.52469 -4.99226,-1.08426 -2.74355,1.5596 -2.0714,-1.9144 -6.29964,-1.6373 -2.07365,2.28777 -3.85486,-2.25049 -4.11836,0.695419 -2.14239,2.39966 -2.31058,-1.37686 -3.07001,0.469162 -1.34624,2.58903 1.01889,-0.263947 1.91991,-1.38324 1.3316,-2.57625 1.73254,0.799835 2.85522,-1.49115 2.12143,-2.44701 1.03888,0.119431 2.73492,-1.21019 2.15579,-2.18517 z "/>
</g>
</g>
<path style="fill:#a13c2a;stroke-width:2" id="path18425" d="m 217.5466,244.3644 c 1.69034,-0.604355 3.90742,0.603546 8.8024,4.57822 l .9025,-5.0217 c -5.12811,-3.384 -7.4231,-4.34405 -11.871,-5.25778"/>
<g style="stroke:#000">
<path style="fill:none;stroke-width:.432" id="path20365" d="m 226.349,248.9426 c -4.89497,-3.97467 -7.18288,-5.18919 -8.87324,-4.58484 m -2.0475,-5.6655 c 4.44781,0.913589 6.79135,1.77577 11.905,5.30569"/>
<g style="stroke-linejoin:round;stroke-linecap:round">
<g id="g10371">
<path style="fill:#fac53a" id="path10373" d="m 184.6108,133.5829 l -23.6661,.9004 1.2784,11.8727 24.1591,-1.6098 -1.7714,-11.1633 z "/>
<g style="fill:#04a">
<path id="path10375" d="m 184.7705,134.8676 l -23.6521,1.2345 .3977,3.3994 23.8153,-1.1409 -.5608,-3.493 z "/>
<path id="path10377" d="m 185.5337,139.6123 l -23.8544,1.3532 .4172,3.6899 24.0365,-1.2954 -.5993,-3.7476 z "/>
</g>
</g>
<g id="g10387">
<path style="fill:#fac53a" id="path10389" d="m 173.584,420.2215 l -19.6617,4.3795 4.2319,11.241 17.8623,-4.5374 -2.4325,-11.083 z "/>
<g style="fill:#04a">
<path id="path10391" d="m 173.9222,421.5764 l -19.4632,4.4571 1.1794,3.0881 18.9566,-4.2092 -.6727,-3.336 z "/>
<path id="path10393" d="m 174.8761,426.1446 l -18.5473,4.7292 1.3289,3.3704 18.0527,-4.4092 -.8343,-3.6904 z "/>
</g>
</g>
<g id="g10395">
<path style="fill:#fac53a" id="path10397" d="m 94.3765,424.3021 l -21.4784,-.0328 1.4275,11.9133 19.6046,-.6566 .4463,-11.2239 z "/>
<g style="fill:#04a">
<path id="path10399" d="m 94.3111,425.592 l -21.1932,.3016 .4453,3.4122 20.6107,-.2016 .1371,-3.5123 z "/>
<path id="path10401" d="m 94.1527,430.3629 l -20.4874,.4123 .4717,3.7032 19.8494,-.3473 .1664,-3.7682 z "/>
</g>
</g>
</g>
<path style="fill:#fac53a;stroke-width:.216" id="path10403" d="m 76.0416,329.2396 c 63.0211,-10.2824 74.5124,-56.3973 69.8118,-115.846 l -57.4087,-9.8501 c -5.44641,8.79068 -8.65638,20.6683 -4.56316,27.0955 -5.33649,32.7529 -8.57754,66.044 -7.83997,98.6003 z "/>
</g>
<g id="g10718">
<path style="fill:#fac53a;stroke:#000;stroke-linejoin:round;stroke-linecap:round" id="path10409" d="m 88.6282,203.446 l 4.3685,-20.1448 52.8115,24.8115 .1609,5.1465 -57.3409,-9.8132 z "/>
<g style="stroke-width:1.156">
<path style="fill:#04a;stroke:#04a" id="path10433" d="m 111.4,195.9436 l -4.6218,-1.8658 -1.1549,2.7708 4.6899,1.6201 1.0869,-2.5251 z "/>
<path style="fill:#c13c1b;stroke:#c13c1b" id="path10427" d="m 104.9307,193.3325 l -4.2041,-1.7124 -1.3505,3.1946 4.3059,1.426 1.2487,-2.9082 z "/>
<path style="fill:#04a;stroke:#04a" id="path10417" d="m 98.8457,190.9829 l -4.7925,-1.9607 -1.4501,3.3931 4.9687,1.682 1.2739,-3.1143 z "/>
</g>
<path style="fill:#fff;stroke:#000;stroke-linejoin:round;stroke-linecap:round" id="path10411" d="m 92.9981,183.2274 l -.5147,2.4703 50.9494,21.6877 2.2634,.6145 -52.6981,-24.7726 z "/>
<g style="stroke-width:1.156">
<path style="fill:#04a;stroke:#04a" id="path10457" d="m 136.9837,206.0465 l -4.2175,-1.6367 -.5979,1.5719 4.2611,1.5224 .5542,-1.4576 z "/>
<path style="fill:#c13c1b;stroke:#c13c1b" id="path10451" d="m 130.6747,203.6124 l -4.4731,-1.8238 -.6916,1.8545 4.5069,1.5674 .6578,-1.5981 z "/>
<path style="fill:#04a;stroke:#04a" id="path10445" d="m 124.3696,201.1535 l -4.5403,-1.8997 -.9557,2.1856 4.7614,1.5977 .7346,-1.8836 z "/>
</g>
<path style="fill:#308d57" id="path10439" d="m 117.8331,198.3929 l -4.6595,-1.8671 -1.1376,2.6136 4.7678,1.6447 1.0293,-2.3911 z "/>
<g style="stroke-width:1.156">
<g style="stroke-linecap:round;stroke-linejoin:round;stroke:#000;fill:none">
<path id="path10413" d="m 91.1712,192.0735 l 46.6333,15.9463"/>
<path id="path10415" d="m 92.013,188.1218 l 47.2277,18.7535"/>
<path id="path10419" d="m 99.5039,191.2012 l -1.341,3.1065"/>
<path id="path10421" d="m 100.117,191.3617 l -1.3304,3.194"/>
<path id="path10423" d="m 92.8281,188.4946 l -1.4642,3.5487"/>
<path id="path10425" d="m 93.4357,188.7416 l -1.4946,3.5175"/>
<path id="path10429" d="m 105.5351,193.6197 l -1.3182,2.8161"/>
<path id="path10431" d="m 106.1875,193.8468 l -1.2902,2.8249"/>
<path id="path10435" d="m 111.9521,196.146 l -1.0593,2.4891"/>
<path id="path10437" d="m 112.5834,196.3045 l -1.1504,2.6062"/>
<path id="path10441" d="m 118.6305,198.7389 l -1.0511,2.2126"/>
<path id="path10443" d="m 119.2105,198.9941 l -1.0117,2.224"/>
<path id="path10447" d="m 124.9647,201.3637 l -.7072,1.8623"/>
<path id="path10449" d="m 125.6117,201.6228 l -.7631,1.8557"/>
<path id="path10453" d="m 131.2623,203.8515 l -.55,1.6464"/>
<path id="path10455" d="m 131.9694,204.094 l -.6085,1.6737"/>
<path id="path10459" d="m 137.5542,206.281 l -.5483,1.3876"/>
<path id="path10461" d="m 138.112,206.4399 l -.6028,1.4215"/>
</g>
<path style="fill:#04a;stroke:#04a" id="path10467" d="m 97.1679,198.1306 l -4.9892,-1.425 -1.0477,3.5299 5.132,1.1288 .9048,-3.2337 z "/>
<path style="fill:#c13c1b;stroke:#c13c1b" id="path10477" d="m 103.4865,199.8008 l -4.3758,-1.2424 -1.0261,3.285 4.4983,.9836 .9036,-3.0262 z "/>
<path style="fill:#04a;stroke:#04a" id="path10483" d="m 110.2174,201.6889 l -4.8087,-1.3492 -.8265,2.8793 4.8479,1.0977 .7873,-2.6278 z "/>
</g>
<path style="fill:#308d57" id="path10489" d="m 116.8935,203.4202 l -4.8464,-1.3465 -.8275,2.7212 4.9282,1.1136 .7456,-2.4883 z "/>
<g style="stroke-width:1.156">
<path style="fill:#04a;stroke:#04a" id="path10495" d="m 123.7084,205.4495 l -4.7317,-1.3918 -.6962,2.276 4.975,1.1146 .4529,-1.9988 z "/>
<path style="fill:#c13c1b;stroke:#c13c1b" id="path10501" d="m 130.2538,207.1612 l -4.6513,-1.2806 -.4723,1.9182 4.6599,1.0653 .4637,-1.7029 z "/>
<path style="fill:#04a;stroke:#04a" id="path10507" d="m 136.5336,208.9307 l -4.1796,-1.1031 -.4488,1.5258 4.2304,.9825 .3979,-1.4051 z "/>
<g style="stroke-linejoin:round;stroke:#000;fill:none;stroke-linecap:round">
<path id="path10463" d="m 89.4451,199.9537 l 48.4088,10.8515"/>
<path id="path10465" d="m 90.2973,196.131 l 48.7134,13.3535"/>
<path id="path10469" d="m 97.8472,198.2756 l -.9725,3.2332"/>
<path id="path10471" d="m 98.4749,198.3682 l -.9518,3.3191"/>
<path id="path10473" d="m 90.9024,196.307 l -1.0461,3.6943"/>
<path id="path10475" d="m 91.5325,196.4943 l -1.0774,3.6584"/>
<path id="path10479" d="m 104.1203,200.0202 l -.9835,2.9423"/>
<path id="path10481" d="m 104.795,200.1746 l -.9546,2.9478"/>
<path id="path10485" d="m 110.7895,201.8298 l -.7642,2.5889"/>
<path id="path10487" d="m 111.4351,201.9182 l -.841,2.7153"/>
<path id="path10491" d="m 117.726,203.677 l -.788,2.3133"/>
<path id="path10493" d="m 118.3319,203.8672 l -.7475,2.3204"/>
<path id="path10497" d="m 124.3241,205.5934 l -.4868,1.9276"/>
<path id="path10499" d="m 124.9971,205.7803 l -.5431,1.9272"/>
<path id="path10503" d="m 130.9238,207.3786 l -.4623,1.6419"/>
<path id="path10505" d="m 131.6008,207.5414 l -.4918,1.7542"/>
<path id="path10509" d="m 136.977,208.9984 l -.4148,1.4906"/>
<path id="path10511" d="m 137.4271,209.1217 l -.3378,1.4284"/>
</g>
</g>
<g style="stroke:#000">
<g style="fill:none">
<path id="path10513" d="m 137.284,208.2767 l -46.423,-14.9853"/>
<path id="path10515" d="m 137.1662,208.6089 l -46.5982,-13.8456"/>
<path id="path10517" d="m 137.7552,211.1867 l -48.4966,-10.2984"/>
<path id="path10519" d="m 138.4758,211.6898 l -49.605,-9.3497"/>
<path id="path10521" d="m 141.5848,206.9686 l -49.2352,-20.523"/>
<path id="path10523" d="m 140.3259,206.8997 l -48.1724,-19.604"/>
</g>
<path style="fill:#fac53a;stroke-linejoin:round;stroke-linecap:round" id="path10525" d="m 145.9938,213.2864 c -5.50801,-1.21104 -9.54994,-0.660538 -8.77808,-4.65465 0.563095,-2.9135 5.73227,-1.52354 8.58881,-0.628387 l .1893,5.283 z "/>
</g>
</g>
<g id="g18488">
<g style="stroke:#000">
<path style="fill:#fff;stroke-width:2" id="path11979" d="m 157.5807,329.1227 l -11.8287,-115.1381 -61.7442,-.0724 c -0.804871,3.18001 -3.68295,9.03033 -0.220039,17.5614 -5.30598,32.6789 -8.52454,65.6839 -7.78899,98.1642 l 81.5819,-.5152 z "/>
<path style="fill:#fac53a" id="path11981" d="m 76.1788,329.3676 c 63.0155,-10.3152 74.4813,-56.436 69.7479,-115.882 l -57.414,-9.8202 c -5.44154,8.79347 -8.7398,21.2819 -4.64301,27.707 -5.31838,32.7556 -8.44634,65.4392 -7.69091,97.9951 z "/>
</g>
<g style="stroke-width:2;fill:none">
<g style="stroke:#c13c1b">
<path id="path7097" d="m 88.6403,203.717 l 46.5498,88.5188"/>
<path id="path12065" d="m 91.4199,204.1799 l 45.0534,85.6733"/>
<path id="path7100" d="m 137.6622,287.2913 l -43.4678,-82.6584"/>
<path id="path12069" d="m 96.9904,205.1271 l 41.8297,79.5432"/>
<path id="path7103" d="m 139.8871,281.8766 l -40.1041,-76.262"/>
<path id="path12073" d="m 102.5704,206.0923 l 38.3406,72.9084"/>
<path id="path7106" d="m 141.8614,275.9852 l -36.5122,-69.4317"/>
<path id="path12077" d="m 108.1193,206.9985 l 34.6147,65.8232"/>
<path id="path7109" d="m 143.5409,269.5332 l -32.6169,-62.0242"/>
<path id="path12081" d="m 113.7166,207.9966 l 30.5283,58.0525"/>
<path id="path7112" d="m 144.9126,262.496 l -28.3999,-54.0053"/>
<path id="path12085" d="m 119.2828,208.9355 l 26.173,49.7706"/>
<path id="path12087" d="m 145.9299,254.7848 l -23.8545,-45.3617"/>
<path id="path12089" d="m 124.8585,209.8926 l 21.4495,40.7883"/>
<path id="path12091" d="m 146.5953,246.4045 l -18.9451,-36.026"/>
<path id="path12093" d="m 130.429,210.8398 l 16.3491,31.0894"/>
<path id="path12095" d="m 146.8665,237.2746 l -13.6579,-25.972"/>
<path id="path12101" d="m 136.0133,211.8132 l 10.8328,20.5997"/>
<path id="path12103" d="m 146.722,227.3539 l -7.9385,-15.0959"/>
<path id="path12105" d="m 141.589,212.7703 l 4.9561,9.4245"/>
<path id="path12107" d="m 146.1693,216.6575 l -1.8015,-3.4259"/>
<path id="path12109" d="m 87.2309,205.8596 l 46.6353,88.6816"/>
<path id="path12111" d="m 132.4827,296.7333 l -46.4813,-88.3887"/>
<path id="path12113" d="m 84.8574,210.9921 l 46.2115,87.8756"/>
<path id="path12115" d="m 129.5938,300.8854 l -45.7641,-87.0249"/>
<path id="path12117" d="m 82.9486,217.008 l 45.1095,85.7802"/>
<path id="path12119" d="m 126.4888,304.6266 l -44.2195,-84.0876"/>
<path id="path12121" d="m 82.0546,224.9536 l 42.7991,81.3867"/>
<path id="path12123" d="m 123.2014,308.021 l -39.6131,-75.3282"/>
<path id="path12125" d="m 83.019,236.4331 l 38.4738,73.1618"/>
<path id="path12127" d="m 119.7886,311.1769 l -37.3145,-70.9571"/>
<path id="path12129" d="m 81.8987,243.9485 l 36.1078,68.6627"/>
<path id="path12131" d="m 116.1761,313.9532 l -34.7978,-66.1714"/>
<path id="path12133" d="m 80.8274,251.557 l 33.4975,63.6988"/>
<path id="path12135" d="m 112.4254,316.4665 l -32.0511,-60.9483"/>
<path id="path12137" d="m 79.8661,259.3748 l 30.651,58.2858"/>
<path id="path12139" d="m 108.5613,318.7643 l -29.1789,-55.4865"/>
<path id="path12141" d="m 79.0026,267.3784 l 27.5951,52.4748"/>
<path id="path12143" d="m 104.5807,320.8403 l -26.0861,-49.6053"/>
<path id="path12145" d="m 78.1637,275.4287 l 24.3756,46.3525"/>
<path id="path12147" d="m 100.4486,322.6285 l -22.6892,-43.1457"/>
<path id="path12149" d="m 77.4851,283.7839 l 20.8824,39.71"/>
<path id="path12151" d="m 96.2647,324.3181 l -19.1059,-36.3318"/>
<path id="path12153" d="m 76.8463,292.215 l 17.2457,32.7943"/>
<path id="path12155" d="m 91.9633,325.7842 l -15.3378,-29.1663"/>
<path id="path12157" d="m 76.4291,301.0673 l 13.3139,25.3177"/>
<path id="path12159" d="m 87.5054,326.9528 l -11.2849,-21.4593"/>
<path id="path12161" d="m 76.1036,310.094 l 9.1694,17.4364"/>
<path id="path12163" d="m 83.0224,328.0736 l -6.9624,-13.2396"/>
<path id="path12165" d="m 75.992,319.5275 l 4.7279,8.9906"/>
<path id="path12167" d="m 78.4089,328.9462 l -2.3381,-4.4462"/>
</g>
<path style="stroke:#000" id="path15477" d="m 76.2026,329.3676 c 63.0155,-10.3152 74.4813,-56.436 69.748,-115.882 l -57.414,-9.8202 c -5.44154,8.79347 -8.73975,21.2819 -4.64302,27.707 -5.31843,32.7556 -8.44635,65.4392 -7.69093,97.9951 z "/>
</g>
</g>
<path style="stroke-linejoin:round;fill-opacity:.706;stroke-linecap:round;stroke-width:2" id="path18544" d="m 143.6146,202.1904 a -0.566615,1.38414 0 1,11 -0.000244,0 -0.566615,1.38414 0 1,1 -1.13318,0.000244 z "/>
<g style="stroke:#000">
<path style="fill:none;stroke-width:.5" id="path3150" d="m 49.8004,125.6156 c 0.045948,3.07396 0.222862,6.14787 0.043949,9.22182"/>
<path style="fill:#fac53a;stroke-width:.3" id="path29166" d="m 151.4722,41.7231 l -.1759,-2.9885 -27.7978,-.8539 -5.1901,12.808 23.0475,-2.3054 10.1163,-6.6602 z "/>
<g id="g29152">
<path style="fill:#a13c2a;stroke-width:.363" id="path7778" d="m 110.2899,49.1572 l -1.7074,25.7149 -2.925,17.011 c 0.253387,2.04512 -1.42047,4.60954 -0.527359,6.2879 1.94843,3.66153 7.33578,4.55874 14.4484,5.30576 9.46379,0.994003 14.9533,-0.961182 16.7842,-10.243 0.922424,-3.13879 1.25293,-6.7801 1.91846,-9.6022 3.29834,0.962593 18.2966,-2.64127 17.6545,-5.91615 -0.249344,-0.610023 -0.498749,-1.84176 -0.748154,-3.22344 0.024597,-1.40583 0.560104,-1.90628 1.50482,-2.04467 0.540543,0.132202 1.24641,-2.53203 -0.305801,-2.81929 1.53241,0.037476 1.46706,-1.76029 1.17744,-2.47362 -0.299271,-0.748955 -0.453445,-1.67341 -0.25354,-2.2609 3.11952,-0.141693 5.45232,-2.14306 3.87207,-5.34773 -1.51416,-3.07057 -5.74776,-8.58702 -8.0462,-12.2533 0.077728,-1.41763 -0.637833,-4.17399 -1.76521,-6.25906 -4.55966,-0.494217 -24.3711,-1.26009 -24.4916,7.94769 l -16.5896,.1761 z "/>
<path style="fill:none;stroke-width:1.451" id="path7780" d="m 127.05,50.4271 c 0.826218,21.8309 6.98218,33.8957 27.2855,29.7337"/>
<g style="stroke-width:.086">
<path id="path7782" d="m 129.0213,48.6307 c 1.73686,-0.423801 3.40387,-0.983227 4.89864,-1.87693 2.81424,-1.67943 4.90665,-3.93216 8.85204,-4.71327 3.16431,-0.572182 5.98086,-0.29932 7.83232,0.478157 1.87718,0.78833 1.04421,2.25908 -0.429657,1.71014 -1.47385,-0.548943 -4.1378,-1.02673 -6.67217,-0.519844 -2.53436,0.506844 -6.42856,3.41199 -8.852,4.71319 -2.42358,1.30128 -3.74168,1.56968 -5.50029,1.91874 -0.286591,-0.629223 -0.300278,-1.19212 -0.128876,-1.71018 z "/>
<path id="path7784" d="m 128.8923,51.3837 c 4.60463,-0.53949 5.83562,-0.576183 9.66846,-2.00211 5.10254,-1.72207 10.9167,-3.95771 13.5358,0.375385 1.14862,1.76462 2.04222,2.40981 -0.730515,2.21059 -7.14894,1.61112 -8.76831,0.030708 -11.9888,-0.625549 -2.39818,0.401802 -6.29384,1.25089 -10.1411,2.08549 -0.323334,-0.630665 -0.478119,-1.30215 -0.343826,-2.0438 z "/>
<path style="fill:none" id="path7786" d="m 143.058,48.5834 c 2.56363,-1.04332 5.01738,-1.59866 7.01895,-0.14743 -0.165634,1.35457 -0.638855,2.45645 -1.85359,2.94935 -1.45171,0.320202 -3.93185,0.191635 -4.83122,-0.589886 -0.899216,-0.781521 -1.14224,-1.82323 -0.334137,-2.21203 z "/>
<g style="fill:#fff">
<path id="path7788" d="m 140.2562,50.3733 c 1.12563,-0.306499 1.74545,-0.711231 2.49158,-1.09128 -0.111435,0.763569 0.243698,1.22517 0.607635,1.68113 -0.404984,0.147636 -2.573,-0.442867 -3.09921,-0.589844 z "/>
<path id="path7790" d="m 150.0497,49.0235 c 0.84758,0.934315 1.1243,1.31927 1.27303,2.24381 -1.17514,-0.127575 -2.15134,0.339024 -3.06894,0.117962 1.19392,-0.746849 1.64625,-1.3031 1.79591,-2.36177 z "/>
</g>
<g style="fill:none">
<path id="path7792" d="m 149.5682,71.1755 c 2.52943,-1.06792 5.08261,0.406792 7.41394,0.85527 m .5774,-4.8664 c -2.96095,-1.21085 -5.26866,1.69025 -7.38359,1.35667"/>
<path id="path7796" d="m 155.0296,60.6168 c -3.08278,2.42497 -1.42641,3.92572 0.030441,3.86364 1.44154,-0.062073 3.52277,-2.43994 4.04115,-1.10597 0.523422,1.34685 -2.33661,0.867493 -2.29407,0.486622"/>
<path id="path7798" d="m 149.7758,69.7598 c 0.212692,-0.058937 6.65433,-0.058937 6.65433,-0.058937"/>
</g>
</g>
<path style="stroke-width:.254" id="path7330" d="m 147.4419,82.6454 c 3.27698,-0.434288 7.13493,-2.68144 8.30077,-3.9469 3.2617,13.4178 2.20305,30.8042 17.9248,28.5649 0.329102,-0.038589 0.635315,-0.053864 0.89212,0.077881 2.30872,1.91379 1.36557,6.34387 -6.89394,5.05926 -14.3658,-2.2344 -16.8906,-21.7443 -20.2238,-29.7552 z "/>
<path style="fill-opacity:.706;stroke-width:.086" id="path16847" d="m 156.6219,63.8941 c 1.09735,-0.628433 2.16036,-1.42056 2.51045,-0.519638 0.523453,1.34685 -2.3367,0.867493 -2.2941,0.486622"/>
</g>
</g>
</g>
<g id="g29076">
<g style="fill-rule:evenodd">
<g style="stroke:#000;stroke-width:.282">
<path style="fill:#fac53a" id="path12452" d="m 122.2338,61.415 c 2.10793,6.37966 0.94603,68.8267 1.62172,78.8401 -17.2468,0.057266 -18.0227,-12.1451 -18.3321,-25.0442 -0.220322,-9.31707 -0.603119,-16.5998 -1.12899,-23.3619 l -20.1368,2.6237 c -2.47787,-2.53621 -7.34264,-5.36395 -7.43304,-7.60856 -2.47497,-12.7682 1.17303,-33.8616 8.37907,-48.1436 10.5418,-20.8934 27.6175,-22.3078 40.6712,-20.5983 11.625,1.52241 24.1899,5.28251 25.2802,20.5983 -12.1631,-1.20599 -21.6234,0.451782 -29.597,4.1978"/>
<path style="fill:none" id="path12456" d="m 120.612,60.8903 c 1.54647,26.6881 0.961861,52.8591 1.21632,79.2337"/>
</g>
<g style="fill:#04a">
<g style="stroke-width:8">
<path id="path12458" d="m 120.9947,75.2972 l .2474,3.7871 c -13.3527,3.61436 -25.8059,8.99333 -38.0932,14.3315 l -.4402,-.3978 c 12.5505,-6.35759 25.1987,-12.5788 38.2859,-17.7207 z "/>
<path id="path12460" d="m 121.3528,81.4324 l .0701,3.3853 c -12.6778,2.52849 -25.107,6.02267 -37.6161,9.2066 l -.5092,-.4936 c 12.559,-4.19511 24.661,-8.87614 38.0552,-12.0983 z "/>
<path id="path12462" d="m 145.9993,26.4716 c -0.222641,0.954113 -0.65181,1.5073 -1.45537,1.33372 -12.2732,-7.0401 -23.7955,-8.49085 -33.6311,-6.54191 -9.83563,1.94894 -26.1084,8.15128 -34.764,52.1706 l 1.4505,-11.2922 c 5.73907,-29.0064 20.1262,-44.0214 40.0069,-44.0324 8.53507,-0.004692 19.8395,1.57534 28.3931,8.36212 z "/>
<path id="path12464" d="m 143.5935,28.4707 l -1.1969,2.2112 c -0.104141,-0.040642 -0.691956,-0.29451 -0.795761,-0.334673 -41.6821,-16.1301 -54.6037,5.77251 -65.5229,48.4327 l .01,-3.1644 c 8.20877,-40.1527 25.235,-65.5264 66.5508,-47.661 0.140732,0.060722 0.812164,0.45755 0.954819,0.516245 z "/>
<path id="path12466" d="m 145.1055,33.0124 l -2.7162,.8489 c -0.113983,-0.040165 -0.887543,-0.29351 -1.00111,-0.333084 -46.1091,-16.0718 -55.2853,16.2363 -65.0041,50.2626 l -.2195,-2.8125 c 10.3056,-42.2345 24.8043,-65.2545 65.6154,-49.2737 0.139191,0.05452 3.18431,1.25562 3.32552,1.30771 z "/>
<path id="path12468" d="m 141.522,35.3496 c 2.30039,1.14427 4.14946,2.35818 3.41921,2.98215 -3.49431,-0.740566 -5.66864,-1.69392 -5.81941,-1.74999 -41.7202,-15.5222 -53.8415,22.5473 -62.1589,50.9644 -0.377777,-0.87072 -0.309601,-1.43973 -0.421524,-2.48253 10.3969,-37.5378 24.5721,-65.8381 63.8689,-50.1838 0.106506,0.042389 1.00487,0.426689 1.11174,0.469761 z "/>
<path id="path12470" d="m 139.8893,38.4513 c -1.59573,0.081524 -3.23721,0.140816 -4.3799,0.442204 -34.2006,-12.4565 -48.3934,24.0394 -57.7093,49.928 l -.4339,-.5651 c 7.72867,-27.5687 23.6739,-64.76 58.7094,-51.2434 0.098206,0.037895 3.71527,1.39969 3.81375,1.43834 z "/>
<path id="path12472" d="m 131.5668,39.4737 l -3.8445,1.0096 c -24.3683,-6.28876 -40.0278,29.5224 -49.1095,49.1694 l -.5425,-.5718 c 7.44407,-18.8646 24.3809,-59.3722 52.1345,-50.2645 0.101944,0.033443 1.08371,0.366405 1.36189,0.657337 z "/>
<path id="path12474" d="m 122.655,42.2806 l -1.3182,1.365 c -18.4168,2.4249 -32.1887,30.3 -42.0027,46.6277 l -.5689,-.4646 c 7.7456,-15.2765 23.4093,-47.974 42.1378,-48.0255 0.359886,-0.000954 1.10319,0.102875 1.75204,0.497398 z "/>
<path id="path12476" d="m 114.3274,48.4809 l .9164,2.5621 c -10.9729,6.28788 -28.9302,30.5955 -35.2124,39.8374 l -.5313,-.4257 c 11.7076,-18.3362 23.4065,-36.3432 34.8273,-41.9738 z "/>
<path id="path12478" d="m 115.907,52.7212 l 1.3046,1.9071 c -10.8039,7.54052 -28.9955,27.9359 -36.558,36.7711 l -.4839,-.3963 c 6.99504,-8.9995 21.5803,-29.0521 35.7373,-38.282 z "/>
<path id="path12480" d="m 118.479,56.7453 l 1.4839,2.6549 c -10.4937,6.62709 -29.4254,23.9347 -38.6026,32.567 l -.5566,-.4415 c 8.99514,-8.86947 25.7178,-27.6501 37.6753,-34.7804 z "/>
<path id="path12482" d="m 120.6881,61.947 l .2525,3.0672 c -12.332,7.89392 -25.8151,17.2131 -38.9348,27.4926 l -.4587,-.4316 c 12.225,-10.8954 25.8353,-21.1557 39.1409,-30.1282 z "/>
<path id="path12484" d="m 121.0268,67.742 l .1842,4.3995 c -10.3844,4.19502 -26.0298,13.4225 -38.6106,20.7898 l -.4167,-.3347 c 12.3597,-8.37199 25.5929,-16.6555 38.8431,-24.8546 z "/>
<path id="path12486" d="m 121.7131,87.4235 l -.1034,3.1274 c -12.0477,0.858559 -25.564,2.59969 -37.3824,3.90323 l -.2072,-.2519 c 12.421,-2.76742 25.272,-5.00077 37.6931,-6.77876 z "/>
</g>
<g style="stroke-width:12">
<path id="path12488" d="m 121.6273,92.9338 v 2.20384 h -17.0175 l -.0676,-2.2038 h 17.0851 z "/>
<path id="path12490" d="m 121.6206,97.2955 v 2.20385 h -16.6796 l -.1689,-2.2039 h 16.8485 z "/>
<path id="path12492" d="m 121.7152,102.1624 v 2.20385 h -16.4845 l -.1351,-2.2039 h 16.6196 z "/>
<path id="path12494" d="m 121.6679,106.5701 v 2.20385 h -16.248 l -.1351,-2.2039 h 16.3831 z "/>
<path id="path12496" d="m 121.6679,110.9778 v 2.20385 h -16.1534 v -2.20385 h 16.1534 z "/>
<path id="path12498" d="m 121.7152,115.242 v 2.20385 h -16.0529 l -.1014,-2.2039 h 16.1542 z "/>
<path id="path12500" d="m 121.8098,119.7416 v 2.20385 h -15.9583 l -.1689,-2.2039 h 16.1272 z "/>
<path id="path12502" d="m 121.8098,124.2411 v 2.20385 h -15.4794 l -.2027,-2.2039 h 15.6821 z "/>
<path id="path12504" d="m 121.7152,128.3676 v 2.20384 h -14.2774 l -.5744,-2.2038 h 14.8518 z "/>
<path id="path12506" d="m 121.8098,132.1268 v 2.20384 h -12.4081 l -1.2839,-2.2038 h 13.6921 z "/>
<path id="path12508" d="m 121.8098,136.2015 v 2.20384 h -7.63494 c -1.23779,-0.734558 -2.40422,-1.46921 -3.10838,-2.20384 h 10.7433 z "/>
</g>
</g>
<path style="fill:#fac53a;stroke:#000;stroke-width:.141" id="path15417" d="m 151.5473,38.62 c 0.986008,-0.009583 1.95494,-0.865513 2.31972,-2.2007 0.528351,-1.93423 0.911041,-4.3136 1.34541,-6.47311 0.022949,-0.654911 -0.050873,-1.31706 -0.844543,-2.03297 -0.022507,-0.109278 0.022552,-0.17485 0.135132,-0.196724 1.01422,0.084583 1.95525,0.053764 2.46596,-0.655785 0.025986,-0.203602 -0.03978,-0.29598 -0.101334,-0.393446 -0.743668,-0.55311 -1.82924,-0.579554 -2.22951,-0.22953 -1.19282,-0.067684 -3.38619,0.123791 -3.78342,3.3445 -0.11525,0.934587 0.426529,2.62994 0.472946,3.73799 0.014359,0.341751 0.092606,0.835251 -0.049454,1.15883 -0.767273,1.748 -3.67258,1.46316 -5.41801,1.30473 -0.715836,-0.111942 -1.5507,-0.168056 -2.09685,-0.675709 0.595718,-0.347874 1.61035,-0.171432 2.36417,-0.230923 1.27708,-0.007515 2.37131,-0.191475 3.32324,-0.709511 1.04837,-0.607109 0.248749,-2.56119 -0.567657,-3.41719 -0.960312,-1.00692 -2.03922,-0.845312 -3.35851,-0.858316 -0.665726,0.088005 -0.151581,-0.178787 0.185226,-0.296417 0.832504,-0.272837 2.07434,0.214779 2.0613,-0.766453 -0.048721,-0.934984 -1.32109,-2.28978 -1.94636,-2.94859 -2.06509,-2.28302 -4.29362,-3.55351 -6.15503,-4.27292 -1.7748,-0.870722 -2.71353,-1.37038 -2.81596,-1.12797 4.54095,1.87812 10.778,6.3181 8.14317,7.01087 -0.740524,0.311211 -1.53268,0.625919 -2.03078,1.27582 -0.682327,0.802364 -0.791733,2.13183 0.075958,2.85025 0.989548,0.735235 2.32408,0.410746 3.47516,0.462362 0.471222,0.021156 1.5145,0.137474 1.37218,0.467491 -0.128036,0.297134 -3.15872,-0.122162 -4.78941,0.378178 -1.10375,0.268902 -1.852,1.42065 -1.59538,2.50217 0.260559,1.26286 1.48073,2.1675 2.70187,2.43274 2.38309,0.341595 4.43541,0.588463 7.34078,0.560349 z "/>
<path style="fill:#308d57;stroke-width:.188" id="path4601" d="m 151.8458,33.7314 c 0.648682,0.1805 1.39082,0.21283 2.07127,0.084187 0,0 -0.68045,0.128643 0.011841,-0.023979 -0.179138,0.837196 -0.411423,1.85525 -0.696426,3.06129 l -.0119,-.0116 c 0.059006,-0.887821 -1.30512,-0.920113 -1.43317,-0.452141 0.113922,-1.04713 0.023911,-0.057941 0.023911,-0.057941 0.090012,-0.989185 0.088364,-1.83955 0.0345,-2.59984 z "/>
<path style="fill:none;stroke:#000;stroke-width:.07" id="path22388" d="m 151.8231,36.3312 c 0.341675,-3.75485 -0.714508,-5.71986 -0.423965,-6.96315 0.389359,-1.66616 1.5632,-1.58763 1.77193,-1.58122 0.215332,0.006601 1.35938,0.156004 1.43285,1.84253 0.052536,1.20551 -0.404816,3.02995 -1.34767,7.23511"/>
<path style="fill:#c13c1b;stroke-width:.188" id="path4623" d="m 154.4539,31.219 c -0.948242,0.35054 -2.01714,0.434484 -2.97447,-0.139698 0.118286,0.714798 0.292557,1.60226 0.368866,2.68792 0.651566,0.159344 1.38834,0.17704 2.07278,0.059849 0.250061,-1.0962 0.421829,-1.92457 0.532822,-2.60807 z "/>
<path style="fill:none;stroke:#000;stroke-width:.07" id="path22392" d="m 154.4584,31.242 c -0.948257,0.350538 -2.00974,0.411461 -2.96127,-0.150715"/>
<path style="fill:#04a;stroke-width:.188" id="path4633" d="m 154.4725,31.2422 c -0.948212,0.350538 -2.01332,0.411301 -2.96771,-0.145624 -0.125443,-0.707958 -0.202744,-1.26775 -0.095032,-1.72844 0.389328,-1.66616 1.5632,-1.58763 1.77193,-1.58122 0.215332,0.006601 1.35934,0.156004 1.43282,1.84253 0.018768,0.431425 -0.031281,0.941982 -0.141998,1.61276 z "/>
<path style="fill:none;stroke:#000;stroke-width:.07" id="path22394" d="m 153.9289,33.8156 c -0.68045,0.128643 -1.41719,0.110947 -2.0659,-0.06955"/>
<path style="fill:#308d57;stroke-width:.188" id="path2654" d="m 151.4352,27.9181 l .1395,-.0377 c 0.566833,-0.341354 0.926453,-0.79771 1.77347,-0.983658 0.53627,-0.148964 1.12676,-0.022589 1.67212,0.081957 0.288681,0.107449 0.550125,0.056231 0.793884,-0.098381 0.233673,-0.212948 0.676453,-0.020082 1.03026,0 l .1212,-.0259 c -0.019836,-0.075834 -0.056946,-0.130672 -0.092667,-0.18722 -0.743683,-0.55311 -1.82932,-0.579554 -2.22949,-0.22953 -0.900223,-0.051062 -2.37041,0.045452 -3.20821,1.48042 z "/>
<g style="stroke:#000">
<path style="fill:none;stroke-width:.07" id="path22396" d="m 156.7494,26.8803 c -0.353806,-0.020082 -0.796539,-0.212948 -1.03032,0 -0.243668,0.154612 -0.505127,0.20583 -0.793823,0.098381 -0.545425,-0.104546 -1.13585,-0.230921 -1.6721,-0.081957 -0.847031,0.185947 -1.20665,0.642303 -1.77348,0.983658"/>
<path style="stroke-linejoin:round;stroke-linecap:round" id="path22398" d="m 155.0846,26.7189 a -0.252032,0.216679 0 1,1 -0.504089,0 z "/>
<g style="fill:none">
<path style="stroke-width:.07" id="path23371" d="m 153.2324,36.8413 c 0.059006,-0.887821 -1.30518,-0.920113 -1.45706,-0.394161"/>
<g style="stroke-width:.037">
<path id="path23373" d="m 153.2488,36.8881 c -0.572433,-0.140614 -1.06367,-0.177357 -1.57277,-0.441086"/>
<path id="path23375" d="m 152.6681,37.5177 c -0.538422,-0.075039 -0.950943,-0.411739 -1.22658,-0.703148"/>
<path id="path23377" d="m 152.091,37.8469 c -0.431244,-0.217365 -0.735062,-0.394005 -0.975693,-0.765503"/>
</g>
<g style="stroke-width:.188" id="g7619">
<path id="path7593" d="m 151.8327,36.3315 c 0.341675,-3.75482 -0.714478,-5.71985 -0.423935,-6.96317 0.389328,-1.66614 1.56317,-1.58762 1.77187,-1.58122 0.215363,0.006609 1.35941,0.156025 1.43288,1.84253 0.052521,1.20554 -0.404861,3.02997 -1.34764,7.23512"/>
<path id="path7597" d="m 154.4679,31.2423 c -0.948242,0.350534 -2.00972,0.411463 -2.96123,-0.150726"/>
<path id="path7601" d="m 153.9385,33.8158 c -0.680481,0.128613 -1.41725,0.110931 -2.0659,-0.069557"/>
<path style="stroke-linejoin:round;stroke-linecap:round" id="path7609" d="m 153.2419,36.8416 c 0.059006,-0.88784 -1.30515,-0.920101 -1.45703,-0.394169"/>
</g>
</g>
<path style="fill:#fac53a;stroke-width:.07" id="path22390" d="m 152.7947,36.1762 c 0.500687,-2.80583 0.184509,-5.33957 0.652649,-8.30769 -0.207031,-0.098383 -0.414047,-0.100807 -0.621033,-0.046408 -0.568222,1.90719 -0.129623,5.70769 -0.607407,8.31803"/>
<g style="fill:none;stroke-linejoin:round;stroke-linecap:round">
<path style="stroke-dasharray:0.37424002,0.74848005;stroke-width:.094" id="path14436" d="m 153.4424,37.043 c -0.775986,1.6326 -2.77246,1.4251 -5.68849,1.11783"/>
<path style="stroke-dasharray:0.07484801,0.89817607;stroke-width:.075" id="path17345" d="m 153.1957,37.2389 c -0.853928,0.874538 -2.2932,1.25558 -5.32819,0.671097"/>
<path style="stroke-width:.094" id="path19287" d="m 153.2518,36.8036 c 0.059219,-0.560905 -0.985107,-1.03205 -1.46346,-0.381001"/>
</g>
<path style="fill:#fac53a;stroke-width:.282" id="path24138" d="m 84.0746,94.482 c -3.13761,0.476067 -6.32303,0.884308 -9.4607,1.85516 0.81649,-2.8673 1.73288,-5.16977 2.91467,-7.74543 l 6.546,5.8903 z "/>
</g>
<g style="fill:#04a;stroke-width:6">
<path id="path24140" d="m 75.6762,93.192 c 1.26878,0.333481 2.39034,1.26233 3.24705,2.0517 l -1.3539,.2876 c -0.755806,-0.696472 -1.12569,-0.992416 -2.1888,-1.27181 l .2956,-1.0675 z "/>
<path id="path24142" d="m 76.4507,91.3267 c 1.86047,0.644615 3.6585,2.06132 4.93163,3.5042 l -1.264,.2125 c -1.28842,-1.27061 -2.37189,-2.01281 -4.09337,-2.69511 l .4257,-1.0216 z "/>
<path id="path24144" d="m 77.1652,89.4335 c 1.37693,0.819984 4.46905,3.15092 6.35972,5.04014 l -1.376,.2605 c -0.927177,-1.05412 -4.11203,-3.63854 -5.42168,-4.24449 l .438,-1.0562 z "/>
</g>
</g>
</g>
<g style="fill-rule:evenodd">
<g style="stroke-width:.725" id="g29148">
<path style="fill:#a13c2a" id="path2721" d="m 124.1515,53.4557 c 4.38297,1.99456 2.70767,6.99794 1.23775,9.22525 -0.866661,1.68446 -2.81976,1.30776 -3.38266,0.463669 -0.592316,-0.888214 -1.14883,-2.06237 -1.93572,-3.21866 -6.81719,-8.47645 -5.86893,-10.7803 -5.89074,-11.0834 -0.038185,-0.532104 1.33865,-4.26227 3.73847,-4.06259 2.08857,0.173805 6.72986,2.45679 4.89557,6.67403 -0.328995,0.756466 1.93276,0.427967 1.13497,1.30784"/>
<path style="fill:none;stroke:#000" id="path7776" d="m 122.3916,55.4482 c 4.383,1.99452 4.51154,5.00545 3.04163,7.23275 -0.866661,1.68446 -2.81966,1.30776 -3.38267,0.463669 -0.592308,-0.888214 -1.14882,-2.06237 -1.93576,-3.21866 -6.81718,-8.47645 -5.86889,-10.7803 -5.89062,-11.0834 -0.038254,-0.532104 1.33858,-4.26227 3.7384,-4.06259 2.46322,0.204967 8.47701,3.34364 3.23145,9.12908 -1.14101,1.23986 0.081764,2.36082 1.3128,3.92956 m -1.404,-7.6956 c -3.53991,0.819904 -2.74437,4.05961 0.510506,8.67189 2.38243,1.32175 3.02676,2.00723 2.84132,1.54562 -0.191734,-0.477169 -0.059273,-1.21403 -2.00867,-2.52188"/>
</g>
<path style="fill:#fff;stroke:#000;stroke-width:.243" id="path32521" d="m 146.067,213.5388 c 21.3524,39.1144 42.2265,77.574 65.3684,116.254 l -133.603,-.1432"/>
<g style="stroke-width:.3;fill:none;stroke:#c13c1b" id="g58011">
<path id="path32569" d="m 166.3777,261.2245 l 31.8462,47.0952"/>
<path id="path32571" d="m 159.9927,265.8406 l 38.2021,44.6895"/>
<path id="path32573" d="m 157.2953,274.2597 l 41.6022,38.9466"/>
<path id="path32575" d="m 153.1078,281.5114 l 46.877,34.5238"/>
<path id="path32577" d="m 153.7177,291.0626 l 46.9667,27.5489"/>
<path id="path32579" d="m 150.2799,293.3194 l 50.0743,26.1468"/>
<path id="path32581" d="m 200.1057,320.212 l -60.4098,-28.338"/>
<path id="path32583" d="m 107.1626,280.1713 l 92.7377,41.0012"/>
<path id="path32585" d="m 102.5057,288.1714 l 95.4361,34.0925"/>
<path id="path32587" d="m 98.3869,295.1346 l 98.7832,28.5832"/>
<path id="path32589" d="m 94.3477,302.0933 l 102.5361,23.2064"/>
<path id="path32591" d="m 89.3265,310.5259 l 107.1059,16.5693"/>
<path id="path57022" d="m 86.5524,315.3576 l 108.6045,12.4207"/>
<path id="path57024" d="m 80.7785,325.0417 l 114.5543,4.1028"/>
<path id="path32593" d="m 83.466,320.5967 l 107.7475,7.7494"/>
<path id="path57028" d="m 96.2756,298.7209 l 101.4223,25.8508"/>
<path id="path57030" d="m 100.4247,291.868 l 97.5611,31.2497"/>
<path id="path57032" d="m 104.8434,284.1388 l 94.749,37.8448"/>
<path id="path57038" d="m 155.36,278.529 l 43.5375,35.5829"/>
<path id="path57034" d="m 162.8591,263.6153 l 35.3027,45.6703"/>
<path id="path57036" d="m 158.0574,269.2561 l 40.5106,42.7835"/>
<path id="path57040" d="m 151.3485,285.4392 l 49.0096,31.9243"/>
<path id="path57026" d="m 91.6972,306.3669 l 105.2629,19.9171"/>
</g>
</g>
<g id="g50039">
<path style="fill:#04a;stroke:#000;fill-rule:evenodd;stroke-width:.243" id="path46348" d="m 121.4803,209.3567 l -17.312,65.2411 10.4411,2.8333 9.5043,-67.5894"/>
<g id="g45323">
<g style="fill-rule:evenodd">
<path style="fill:#fac53a;stroke:#000;stroke-width:.136" id="path45325" d="m 125.8578,326.2665 c -0.374229,0.885742 -1.89584,1.8605 -3.02905,1.83078 -1.49374,-0.039703 -2.96495,-1.31262 -3.5182,-3.33771 -0.801331,-2.93341 -1.38168,-6.54208 -2.04042,-9.81723 -0.034813,-0.993286 0.077187,-1.99753 1.28075,-3.08322 0.03418,-0.165741 -0.034103,-0.265228 -0.204941,-0.298401 -1.53813,0.128265 -2.96534,0.081512 -3.73991,-0.994598 -0.039345,-0.308777 0.060364,-0.448883 0.153671,-0.596741 1.12792,-0.838867 2.77438,-0.878937 3.38135,-0.348114 1.80905,-0.102661 5.13559,0.187744 5.73806,5.07245 0.174759,1.41739 -0.646835,3.98856 -0.717262,5.6691 -0.021782,0.518341 -0.140388,1.26679 0.075012,1.75751 0.854088,1.5231 2.17134,-6.00088 2.65204,-11.5369"/>
<path style="fill:#308d57;stroke-width:.188" id="path45327" d="m 122.3759,320.6832 c -0.983696,0.273743 -2.10923,0.322754 -3.14132,0.127655 0,0 1.03209,0.195099 -0.017921,-0.036316 0.271744,1.26975 0.624046,2.81369 1.05619,4.64285 l .0181,-.0176 c -0.089455,-1.34653 1.97942,-1.39542 2.17361,-0.685699 -0.172775,-1.58814 -0.036263,-0.08786 -0.036263,-0.08786 -0.136513,-1.50027 -0.134064,-2.78992 -0.052429,-3.94302 z "/>
<path style="fill:none;stroke:#000;stroke-width:.068" id="path45329" d="m 122.4104,324.6262 c -0.518227,-5.69473 1.08356,-8.67499 0.642899,-10.5605 -0.590469,-2.52698 -2.37074,-2.40784 -2.68733,-2.39816 -0.326569,0.01001 -2.06158,0.236633 -2.17301,2.79443 -0.079727,1.82831 0.613998,4.59531 2.04385,10.973"/>
<path style="fill:#c13c1b;stroke-width:.188" id="path45331" d="m 118.4205,316.8728 c 1.43811,0.531616 3.05924,0.658966 4.51121,-0.211914 -0.179489,1.08414 -0.443756,2.43002 -0.559448,4.0766 -0.988167,0.241638 -2.10556,0.268463 -3.14365,0.090759 -0.379265,-1.66251 -0.639786,-2.91882 -0.808113,-3.95544 z "/>
<path style="fill:none;stroke:#000;stroke-width:.068" id="path45333" d="m 118.4138,316.9077 c 1.4381,0.531647 3.04801,0.624054 4.49102,-0.228607"/>
<path style="fill:#04a;stroke-width:.188" id="path45335" d="m 118.3923,316.9079 c 1.43811,0.531616 3.05351,0.62384 4.50096,-0.220856 0.190224,-1.07373 0.30735,-1.92273 0.144043,-2.6214 -0.590454,-2.52698 -2.37073,-2.40784 -2.68724,-2.39816 -0.326653,0.01001 -2.06172,0.236633 -2.17316,2.79443 -0.028496,0.654388 0.047478,1.42871 0.215401,2.44598 z "/>
<path style="fill:none;stroke:#000;stroke-width:.068" id="path45337" d="m 119.2167,320.8109 c 1.03207,0.195099 2.14942,0.168274 3.13313,-0.105499"/>
<path style="fill:#308d57;stroke-width:.188" id="path45339" d="m 122.9987,311.8666 l -.2115,-.0572 c -0.859695,-0.517761 -1.40508,-1.20981 -2.68971,-1.49188 -0.813332,-0.225861 -1.70884,-0.034241 -2.53597,0.124298 -0.437874,0.162994 -0.834351,0.085266 -1.204,-0.149139 -0.354431,-0.323029 -1.02596,-0.030518 -1.56258,0 l -.1837,-.0393 c 0.029984,-0.115051 0.086334,-0.198242 0.140518,-0.283997 1.12791,-0.838867 2.77439,-0.878937 3.38129,-0.348114 1.36536,-0.077423 3.59506,0.068939 4.8657,2.2453 z "/>
<g style="stroke:#000">
<path style="fill:none;stroke-width:.068" id="path45341" d="m 114.9391,310.2927 c 0.536552,-0.030518 1.20807,-0.323029 1.56256,0 0.369591,0.234406 0.766121,0.312134 1.20396,0.149139 0.827133,-0.158539 1.7227,-0.350159 2.53603,-0.124298 1.28462,0.282074 1.82999,0.974121 2.68964,1.49188"/>
<path style="stroke-linejoin:round;stroke-linecap:round" id="path45343" d="m 117.464,310.0483 a 0.38224,0.328623 0 1,1 -0.764488,0"/>
<g style="fill:none">
<path style="stroke-width:.068" id="path45345" d="m 120.273,325.3998 c -0.089439,-1.34653 1.97943,-1.39542 2.20992,-0.597809"/>
<g style="stroke-width:.036">
<path id="path45347" d="m 120.2481,325.4707 c 0.868301,-0.213318 1.61329,-0.269043 2.38534,-0.668976"/>
<path id="path45349" d="m 121.1288,326.4256 c 0.816559,-0.1138 1.44224,-0.624481 1.86031,-1.06641"/>
<path id="path45351" d="m 122.0042,326.9248 c 0.361252,-0.182098 0.663643,-0.345367 0.923401,-0.550018"/>
</g>
<g style="stroke-width:.188" id="g45353">
<path id="path45355" d="m 122.3961,324.6264 c -0.518227,-5.69464 1.08356,-8.6749 0.642929,-10.5605 -0.590469,-2.52689 -2.37076,-2.40784 -2.68727,-2.39813 -0.326607,0.01004 -2.06169,0.236664 -2.17313,2.79443 -0.079666,1.82837 0.614006,4.59534 2.04388,10.973"/>
<path id="path45357" d="m 118.3994,316.9079 c 1.43814,0.531616 3.04803,0.624023 4.49108,-0.228607"/>
<path id="path45359" d="m 119.2023,320.8111 c 1.03205,0.195099 2.14945,0.168274 3.13316,-0.105469"/>
<path style="stroke-linejoin:round;stroke-linecap:round" id="path45361" d="m 120.2587,325.4 c -0.089462,-1.34653 1.97942,-1.39542 2.20983,-0.597778"/>
</g>
</g>
<path style="fill:#fac53a;stroke-width:.068" id="path45363" d="m 120.9368,324.3911 c -0.759293,-4.25543 -0.279823,-8.09821 -0.989784,-12.5997 0.313942,-0.149231 0.627937,-0.152863 0.941864,-0.070343 0.861824,2.89246 0.196556,8.6564 0.921227,12.6153"/>
<g style="fill:none;stroke-linejoin:round;stroke-linecap:round">
<path style="stroke-dasharray:0.36057023,0.72114047;stroke-width:.09" id="path45365" d="m 119.9546,325.7056 c 0.567635,1.19437 1.56599,1.73938 2.94373,1.93131"/>
<path style="stroke-dasharray:0.07211405,0.86536857;stroke-width:.072" id="path45367" d="m 120.3287,326.0028 c 0.602844,0.617279 1.39785,1.07248 2.53983,1.29334"/>
<path style="stroke-width:.09" id="path45369" d="m 120.2437,325.3424 c -0.089836,-0.850616 1.49395,-1.56519 2.2195,-0.577759"/>
</g>
</g>
</g>
</g>
<g id="g45138">
<g style="fill-rule:evenodd">
<path style="fill:#fac53a;stroke:#000;stroke-width:.136" id="path45140" d="m 148.1389,326.3571 c 0.234207,0.810272 1.16495,1.76993 2.29817,1.7402 1.49374,-0.039703 2.96495,-1.31262 3.51813,-3.33771 0.801392,-2.93341 1.3817,-6.54208 2.04053,-9.81723 0.034775,-0.993286 -0.077209,-1.99753 -1.28081,-3.08322 -0.034134,-0.165741 0.034134,-0.265228 0.20491,-0.298401 1.53818,0.128265 2.96535,0.081512 3.73997,-0.994598 0.039337,-0.308777 -0.060364,-0.448883 -0.153687,-0.596741 -1.12793,-0.838867 -2.77437,-0.878937 -3.38135,-0.348114 -1.80907,-0.102661 -5.13559,0.187744 -5.73802,5.07245 -0.174835,1.41739 0.64682,3.98856 0.71727,5.6691 0.021698,0.518341 0.14035,1.26679 -0.075027,1.75751 -0.854126,1.5231 -2.17136,-6.00088 -2.65205,-11.5369"/>
<path style="fill:#308d57;stroke-width:.188" id="path45142" d="m 150.8898,320.6832 c 0.983749,0.273743 2.10928,0.322754 3.14134,0.127655 0,0 -1.03206,0.195099 0.017914,-0.036316 -0.271729,1.26975 -0.624023,2.81369 -1.0562,4.64285 l -.0181,-.0176 c 0.089447,-1.34653 -1.97943,-1.39542 -2.17362,-0.685699 0.17276,-1.58814 0.03624,-0.08786 0.03624,-0.08786 0.13652,-1.50027 0.134064,-2.78992 0.052399,-3.94302 z "/>
<path style="fill:none;stroke:#000;stroke-width:.068" id="path45144" d="m 150.8553,324.6262 c 0.51828,-5.69473 -1.08354,-8.67499 -0.642914,-10.5605 0.5905,-2.52698 2.37082,-2.40784 2.68735,-2.39816 0.326569,0.01001 2.06163,0.236633 2.17308,2.79443 0.079651,1.82831 -0.614044,4.59531 -2.04388,10.973"/>
<path style="fill:#c13c1b;stroke-width:.188" id="path45146" d="m 154.8453,316.8728 c -1.43813,0.531616 -3.05924,0.658966 -4.51119,-0.211914 0.179459,1.08414 0.44371,2.43002 0.559448,4.0766 0.988144,0.241638 2.10556,0.268463 3.1436,0.090759 0.379303,-1.66251 0.639786,-2.91882 0.808136,-3.95544 z "/>
<path style="fill:none;stroke:#000;stroke-width:.068" id="path45148" d="m 154.8521,316.9077 c -1.43813,0.531647 -3.04808,0.624054 -4.4911,-0.228607"/>
<path style="fill:#04a;stroke-width:.188" id="path45150" d="m 154.8735,316.9079 c -1.4381,0.531616 -3.05347,0.62384 -4.50093,-0.220856 -0.190201,-1.07373 -0.307404,-1.92273 -0.144104,-2.6214 0.590515,-2.52698 2.3708,-2.40784 2.6873,-2.39816 0.326599,0.01001 2.06166,0.236633 2.17313,2.79443 0.028488,0.654388 -0.04747,1.42871 -0.215393,2.44598 z "/>
<path style="fill:none;stroke:#000;stroke-width:.068" id="path45152" d="m 154.0491,320.8109 c -1.03206,0.195099 -2.14943,0.168274 -3.13318,-0.105499"/>
<path style="fill:#308d57;stroke-width:.188" id="path45154" d="m 150.2671,311.8666 l .2115,-.0572 c 0.859695,-0.517761 1.40506,-1.20981 2.68968,-1.49188 0.813354,-0.225861 1.70886,-0.034241 2.53601,0.124298 0.437836,0.162994 0.834366,0.085266 1.20396,-0.149139 0.354477,-0.323029 1.02599,-0.030518 1.56258,0 l .1837,-.0393 c -0.030014,-0.115051 -0.086319,-0.198242 -0.140488,-0.283997 -1.12793,-0.838867 -2.7744,-0.878937 -3.38135,-0.348114 -1.36533,-0.077423 -3.59503,0.068939 -4.86563,2.2453 z "/>
<g style="stroke:#000">
<path style="fill:none;stroke-width:.068" id="path45156" d="m 158.3268,310.2927 c -0.536575,-0.030518 -1.20807,-0.323029 -1.56258,0 -0.369614,0.234406 -0.766129,0.312134 -1.20395,0.149139 -0.827179,-0.158539 -1.72269,-0.350159 -2.536,-0.124298 -1.28462,0.282074 -1.83003,0.974121 -2.68973,1.49188"/>
<path style="stroke-linejoin:round;stroke-linecap:round" id="path45158" d="m 155.8018,310.0483 a -0.38224,0.328623 0 1,1 -0.764481,0 z "/>
<g style="fill:none">
<path style="stroke-width:.068" id="path45160" d="m 152.9928,325.3998 c 0.089462,-1.34653 -1.9794,-1.39542 -2.20985,-0.597809"/>
<g style="stroke-width:.036">
<path id="path45162" d="m 153.0177,325.4707 c -0.868256,-0.213318 -1.61324,-0.269043 -2.38531,-0.668976"/>
<path id="path45164" d="m 152.137,326.4256 c -0.816605,-0.1138 -1.44222,-0.624481 -1.86031,-1.06641"/>
<path id="path45166" d="m 151.2616,326.9248 c -0.361298,-0.182098 -0.663635,-0.345367 -0.923416,-0.550018"/>
</g>
<g style="stroke-width:.188" id="g45168">
<path id="path45170" d="m 150.8697,324.6264 c 0.518219,-5.69464 -1.08359,-8.6749 -0.642944,-10.5605 0.590485,-2.52689 2.37074,-2.40784 2.68727,-2.39813 0.326614,0.01004 2.06169,0.236664 2.17313,2.79443 0.079651,1.82837 -0.614014,4.59534 -2.04387,10.973"/>
<path id="path45172" d="m 154.8663,316.9079 c -1.43813,0.531616 -3.04802,0.624023 -4.4911,-0.228607"/>
<path id="path45174" d="m 154.0634,320.8111 c -1.03206,0.195099 -2.14946,0.168274 -3.13318,-0.105469"/>
<path style="stroke-linejoin:round;stroke-linecap:round" id="path45176" d="m 153.007,325.4 c 0.089478,-1.34653 -1.9794,-1.39542 -2.20985,-0.597778"/>
</g>
</g>
<path style="fill:#fac53a;stroke-width:.068" id="path45178" d="m 152.329,324.3911 c 0.759338,-4.25543 0.279846,-8.09821 0.989792,-12.5997 -0.313919,-0.149231 -0.62793,-0.152863 -0.941864,-0.070343 -0.861771,2.89246 -0.196594,8.6564 -0.921204,12.6153"/>
<g style="fill:none;stroke-linejoin:round;stroke-linecap:round">
<path style="stroke-dasharray:0.36057023,0.72114047;stroke-width:.09" id="path45180" d="m 153.3112,325.7056 c -0.567627,1.19437 -1.56595,1.73938 -2.94368,1.93131"/>
<path style="stroke-dasharray:0.07211405,0.86536857;stroke-width:.072" id="path45182" d="m 152.937,326.0028 c -0.602798,0.617279 -1.39787,1.07248 -2.53978,1.29334"/>
<path style="stroke-width:.09" id="path45184" d="m 153.0221,325.3424 c 0.089813,-0.850616 -1.494,-1.56519 -2.21954,-0.577759"/>
</g>
</g>
</g>
</g>
<path style="fill:#c13c1b;stroke:#000;fill-rule:evenodd;stroke-width:.243" id="path32537" d="m 143.5518,212.9812 l 15.4988,79.994 -12.4449,2.8014 -5.3554,-83.2482"/>
<g id="g44417">
<g style="fill-rule:evenodd">
<g style="stroke:#000">
<path style="fill:#fac53a;stroke-width:.243" id="path36009" d="m 142.2113,212.6254 l 6.0577,115.844 h -22.4683 l -.5938,-118.5569 17.0044,2.713 z "/>
<g style="stroke-width:.1">
<path style="fill:#c13c1b" id="path39203" d="m 140.084,213.6891 l .1555,3.7887 h -12.9474 l -.0156,-3.8038 12.8075,.0151 z "/>
<path style="fill:#308d57" id="path39193" d="m 140.3639,220.0931 l .2177,3.7887 h -13.2236 l -.0815,-3.8038 13.0874,.0151 z "/>
<path style="fill:#c13c1b" id="path39183" d="m 140.6749,226.4545 l .2177,3.7887 h -13.5346 l -.0595,-3.8038 13.3765,.0151 z "/>
<path style="fill:#04a" id="path39173" d="m 141.0115,232.8585 l .1957,3.7887 h -13.8272 l .0284,-3.8038 13.603,.0151 z "/>
<path style="fill:#c13c1b" id="path39163" d="m 141.3633,239.2625 l .2177,3.7887 h -14.1351 l -.0155,-3.8038 13.9329,.0151 z "/>
<path style="fill:#308d57" id="path39153" d="m 141.6932,245.6666 l .1738,3.7887 h -14.355 l -.0376,-3.8038 14.2188,.0151 z "/>
<path style="fill:#c13c1b" id="path39143" d="m 142.0231,252.0934 l .1517,3.7887 h -14.6189 l -.0156,-3.8038 14.4827,.0151 z "/>
<path style="fill:#04a" id="path39133" d="m 142.353,258.4547 l .1957,3.7887 h -14.9487 l -.0156,-3.8038 14.7686,.0151 z "/>
<g style="fill:#c13c1b">
<path id="path39123" d="m 142.6828,264.8587 l .1517,3.7887 h -15.2126 l -.0156,-3.8038 15.0765,.0151 z "/>
<path id="path38082" d="m 145.2779,316.0612 l .2177,3.7887 h -17.5878 l -.0155,-3.8038 17.3856,.0151 z "/>
</g>
<path style="fill:#04a" id="path39053" d="m 144.97,309.6571 l .1957,3.7887 h -17.2579 l -.0155,-3.8038 17.0777,.0151 z "/>
<path style="fill:#c13c1b" id="path39063" d="m 144.6621,303.2531 l .1737,3.7887 h -16.928 l -.0155,-3.8038 16.7698,.0151 z "/>
<path style="fill:#308d57" id="path39073" d="m 144.3103,296.8491 l .2177,3.7887 h -16.7521 l -.0155,-3.8038 16.55,.0151 z "/>
<path style="fill:#c13c1b" id="path39083" d="m 143.9804,290.4451 l .1957,3.7887 h -16.4222 l -.0156,-3.8038 16.2421,.0151 z "/>
<path style="fill:#04a" id="path39093" d="m 143.6505,284.0837 l .1957,3.7887 h -16.1363 l -.0156,-3.8038 15.9562,.0151 z "/>
<path style="fill:#c13c1b" id="path39103" d="m 143.3426,277.6668 l .1957,3.7887 h -15.8504 l -.0155,-3.8038 15.6702,.0151 z "/>
<path style="fill:#308d57" id="path39113" d="m 142.9908,271.2628 l .2397,3.7887 h -15.5646 l -.0155,-3.8038 15.3404,.0151 z "/>
</g>
<g style="stroke-width:.243;fill:#fff">
<path id="path36033" d="m 145.4932,319.8066 l -5.5067,-107.4568"/>
<path id="path36035" d="m 127.2321,210.1926 l .6829,109.6365"/>
</g>
<g style="stroke-width:.2;fill:none">
<path id="path36081" d="m 147.8357,321.4197 h -21.9544"/>
<path id="path36083" d="m 147.8357,320.9367 h -22.0204"/>
<path id="path36085" d="m 147.8357,320.3933 h -21.9764"/>
<path id="path36087" d="m 147.8357,319.8499 h -21.9764"/>
<path id="path36089" d="m 145.2482,316.0391 h -17.3361"/>
<path id="path36091" d="m 145.2042,315.1938 h -17.2481"/>
<path id="path36093" d="m 145.2042,314.3485 h -17.3361"/>
<path id="path38080" d="m 145.2042,313.4947 h -17.3361"/>
<path id="path39055" d="m 144.9843,309.6351 h -17.0722"/>
<path id="path39057" d="m 144.9403,308.7898 h -17.0502"/>
<path id="path39059" d="m 144.9183,307.9445 h -17.0502"/>
<path id="path39061" d="m 144.8963,307.0906 h -17.0282"/>
<path id="path39065" d="m 144.6544,303.2311 h -16.7423"/>
<path id="path39067" d="m 144.5884,302.3858 h -16.7643"/>
<path id="path39069" d="m 144.5444,301.5405 h -16.6763"/>
<path id="path39071" d="m 144.5444,300.6866 h -16.6763"/>
<path id="path39075" d="m 144.2805,296.827 h -16.4564"/>
<path id="path39077" d="m 144.3025,295.9817 h -16.5224"/>
<path id="path39079" d="m 144.2365,295.1364 h -16.4784"/>
<path id="path39081" d="m 144.1705,294.2826 h -16.4124"/>
<path id="path39085" d="m 143.9726,290.423 h -16.1705"/>
<path id="path39087" d="m 143.9287,289.5777 h -16.1925"/>
<path id="path39089" d="m 143.9287,288.7324 h -16.2145"/>
<path id="path39091" d="m 143.8626,287.8785 h -16.1045"/>
<path id="path39095" d="m 143.6427,284.0617 h -15.9286"/>
<path id="path39097" d="m 143.6427,283.2164 h -15.9286"/>
<path id="path39099" d="m 143.5768,282.3711 h -15.8626"/>
<path id="path39101" d="m 143.5108,281.5172 h -15.8406"/>
<path id="path39105" d="m 143.3569,277.6447 h -15.6647"/>
<path id="path39107" d="m 143.3349,276.7994 h -15.6867"/>
<path id="path39109" d="m 143.2689,275.9541 h -15.6207"/>
<path id="path39111" d="m 143.2249,275.1003 h -15.5328"/>
<path id="path39115" d="m 143.027,271.2407 h -15.3568"/>
<path id="path39117" d="m 142.939,270.3954 h -15.3348"/>
<path id="path39119" d="m 142.895,269.5501 h -15.2469"/>
<path id="path39121" d="m 142.8731,268.6962 h -15.2908"/>
<path id="path39125" d="m 142.6751,264.8367 h -15.0489"/>
<path id="path39127" d="m 142.6311,263.9914 h -15.0172"/>
<path id="path39129" d="m 142.6091,263.1461 h -15.0365"/>
<path id="path39131" d="m 142.5652,262.2922 h -14.9609"/>
<path id="path39135" d="m 142.3452,258.4326 h -14.785"/>
<path id="path39137" d="m 142.2572,257.5873 h -14.675"/>
<path id="path39139" d="m 142.2572,256.7421 h -14.675"/>
<path id="path39141" d="m 142.2133,255.8882 h -14.6311"/>
<path id="path39145" d="m 141.9934,252.0713 h -14.4332"/>
<path id="path39147" d="m 141.9713,251.226 h -14.4551"/>
<path id="path39149" d="m 141.8834,250.3807 h -14.3452"/>
<path id="path39151" d="m 141.9054,249.5268 h -14.3891"/>
<path id="path39155" d="m 141.7074,245.6445 h -14.1912"/>
<path id="path39157" d="m 141.6195,244.7992 h -14.1032"/>
<path id="path39159" d="m 141.5975,243.9539 h -14.1253"/>
<path id="path39161" d="m 141.5315,243.1001 h -14.0153"/>
<path id="path39165" d="m 141.3776,239.2405 h -13.9054"/>
<path id="path39167" d="m 141.2896,238.3952 h -13.8393"/>
<path id="path39169" d="m 141.3116,237.5499 h -13.8613"/>
<path id="path39171" d="m 141.2456,236.696 h -13.8174"/>
<path id="path39175" d="m 141.0037,232.8364 h -13.5535"/>
<path id="path39177" d="m 141.0366,231.9912 h -13.6083"/>
<path id="path39179" d="m 140.9122,231.1459 h -13.5279"/>
<path id="path39181" d="m 140.9433,230.292 h -13.537"/>
<path id="path39185" d="m 140.7074,226.4324 h -13.3011"/>
<path id="path39187" d="m 140.6945,225.5871 h -13.3322"/>
<path id="path39189" d="m 140.6323,224.7419 h -13.314"/>
<path id="path39191" d="m 140.6012,223.888 h -13.2609"/>
<path id="path39195" d="m 140.3342,220.0711 h -13.0159"/>
<path id="path39197" d="m 140.3524,219.2258 h -13.0121"/>
<path id="path39199" d="m 140.3212,218.3805 h -13.0029"/>
<path id="path39201" d="m 140.259,217.5266 h -12.9407"/>
<path id="path43081" d="m 140.0199,213.6543 h -12.6796"/>
<path id="path43083" d="m 140.0199,212.809 h -12.7016"/>
<path id="path43085" d="m 138.0406,211.9679 h -10.7004"/>
<path id="path43087" d="m 132.7846,211.1226 h -5.46629"/>
</g>
</g>
<g style="fill:none;stroke:#c13c1b">
<g id="g39906">
<path id="path39908" d="m 147.7109,326.4173 c 0.024246,-1.31415 -0.887741,-3.34244 -1.64618,-4.62311 -0.691116,1.29355 -1.56198,3.3689 -1.55633,4.60324 0.010544,2.3732 3.16031,2.25412 3.20252,0.019867 z "/>
<path id="path39910" d="m 147.2879,326.3855 c 0.017853,-0.973358 -0.654816,-2.47555 -1.21433,-3.42407 -0.509811,0.958069 -1.15227,2.49515 -1.14812,3.4093 0.007813,1.75769 2.33134,1.66953 2.36244,0.014771 z "/>
<g style="stroke-linejoin:round;stroke-linecap:round">
<path id="path39912" d="m 147.2783,326.3398 c -0.171738,-0.151306 -0.593216,-0.434692 -1.16231,-0.434692 -0.569031,0 -0.890915,0.200378 -1.14435,0.414825"/>
<path id="path39914" d="m 146.8722,324.7108 c -0.212601,-0.141418 -0.608627,-0.223328 -0.789719,-0.220886 -0.196259,0.002502 -0.574585,0.130737 -0.736145,0.230804"/>
</g>
</g>
<g id="g44367">
<path id="path44369" d="m 144.1649,326.4173 c 0.024216,-1.31415 -0.887756,-3.34244 -1.64619,-4.62311 -0.691132,1.29355 -1.56198,3.3689 -1.55635,4.60324 0.010544,2.3732 3.16032,2.25412 3.20254,0.019867 z "/>
<path id="path44371" d="m 143.7419,326.3855 c 0.017853,-0.973358 -0.654831,-2.47555 -1.21434,-3.42407 -0.509811,0.958069 -1.15225,2.49515 -1.14807,3.4093 0.007782,1.75769 2.33131,1.66953 2.36241,0.014771 z "/>
<g style="stroke-linejoin:round;stroke-linecap:round">
<path id="path44373" d="m 143.7323,326.3398 c -0.171738,-0.151306 -0.593216,-0.434692 -1.16231,-0.434692 -0.569031,0 -0.89093,0.200378 -1.14435,0.414825"/>
<path id="path44375" d="m 143.3262,324.7108 c -0.212601,-0.141418 -0.608658,-0.223328 -0.789734,-0.220886 -0.196259,0.002502 -0.57457,0.130737 -0.736145,0.230804"/>
</g>
</g>
<g id="g44377">
<path id="path44379" d="m 140.5575,326.4173 c 0.024216,-1.31415 -0.887756,-3.34244 -1.64616,-4.62311 -0.691162,1.29355 -1.56203,3.3689 -1.55638,4.60324 0.010544,2.3732 3.16034,2.25412 3.20254,0.019867 z "/>
<path id="path44381" d="m 140.1345,326.3855 c 0.017853,-0.973358 -0.654846,-2.47555 -1.21436,-3.42407 -0.509811,0.958069 -1.15224,2.49515 -1.14809,3.4093 0.007813,1.75769 2.33131,1.66953 2.36244,0.014771 z "/>
<g style="stroke-linejoin:round;stroke-linecap:round">
<path id="path44383" d="m 140.125,326.3398 c -0.171738,-0.151306 -0.593246,-0.434692 -1.16231,-0.434692 -0.569031,0 -0.890945,0.200378 -1.14438,0.414825"/>
<path id="path44385" d="m 139.7189,324.7108 c -0.212631,-0.141418 -0.608658,-0.223328 -0.789749,-0.220886 -0.196259,0.002502 -0.574585,0.130737 -0.736115,0.230804"/>
</g>
</g>
<g id="g44387">
<path id="path44389" d="m 136.9188,326.4173 c 0.024246,-1.31415 -0.887726,-3.34244 -1.64616,-4.62311 -0.691132,1.29355 -1.562,3.3689 -1.55635,4.60324 0.010544,2.3732 3.16031,2.25412 3.20252,0.019867 z "/>
<path id="path44391" d="m 136.4958,326.3855 c 0.017868,-0.973358 -0.654816,-2.47555 -1.21433,-3.42407 -0.509811,0.958069 -1.15227,2.49515 -1.1481,3.4093 0.007813,1.75769 2.33133,1.66953 2.36243,0.014771 z "/>
<g style="stroke-linejoin:round;stroke-linecap:round">
<path id="path44393" d="m 136.4862,326.3398 c -0.171738,-0.151306 -0.593216,-0.434692 -1.16231,-0.434692 -0.569016,0 -0.890945,0.200378 -1.14435,0.414825"/>
<path id="path44395" d="m 136.0801,324.7108 c -0.212601,-0.141418 -0.608658,-0.223328 -0.789719,-0.220886 -0.196259,0.002502 -0.574585,0.130737 -0.736145,0.230804"/>
</g>
</g>
<g id="g44397">
<path id="path44399" d="m 133.2486,326.4173 c 0.024185,-1.31415 -0.887756,-3.34244 -1.64619,-4.62311 -0.691116,1.29355 -1.56198,3.3689 -1.55633,4.60324 0.010544,2.3732 3.16034,2.25412 3.20253,0.019867 z "/>
<path id="path44401" d="m 132.8256,326.3855 c 0.017853,-0.973358 -0.654907,-2.47555 -1.21437,-3.42407 -0.509796,0.958069 -1.15225,2.49515 -1.1481,3.4093 0.007782,1.75769 2.33134,1.66953 2.36247,0.014771 z "/>
<g style="stroke-linejoin:round;stroke-linecap:round">
<path id="path44403" d="m 132.816,326.3398 c -0.171799,-0.151306 -0.593307,-0.434692 -1.16231,-0.434692 -0.569061,0 -0.890976,0.200378 -1.14441,0.414825"/>
<path id="path44405" d="m 132.41,324.7108 c -0.212631,-0.141418 -0.608688,-0.223328 -0.78981,-0.220886 -0.196198,0.002502 -0.574585,0.130737 -0.736115,0.230804"/>
</g>
</g>
<g id="g44407">
<path id="path44409" d="m 129.5473,326.4173 c 0.024246,-1.31415 -0.887726,-3.34244 -1.64615,-4.62311 -0.691139,1.29355 -1.562,3.3689 -1.55636,4.60324 0.010544,2.3732 3.16032,2.25412 3.20251,0.019867 z "/>
<path id="path44411" d="m 129.1244,326.3855 c 0.017853,-0.973358 -0.654861,-2.47555 -1.21435,-3.42407 -0.509827,0.958069 -1.15224,2.49515 -1.14808,3.4093 0.007797,1.75769 2.33131,1.66953 2.36243,0.014771 z "/>
<g style="stroke-linejoin:round;stroke-linecap:round">
<path id="path44413" d="m 129.1148,326.3398 c -0.171738,-0.151306 -0.593231,-0.434692 -1.16231,-0.434692 -0.569031,0 -0.890938,0.200378 -1.14437,0.414825"/>
<path id="path44415" d="m 128.7087,324.7108 c -0.212616,-0.141418 -0.608673,-0.223328 -0.789757,-0.220886 -0.196243,0.002502 -0.574577,0.130737 -0.73613,0.230804"/>
</g>
</g>
</g>
</g>
</g>
<g style="fill-rule:evenodd">
<path style="fill:#fac53a;stroke:#c13c1b;stroke-linejoin:round;stroke-linecap:round;stroke-width:.3" id="rect34034" d="m 157.8479,328.3266 h -42.2849 v 1.05823 h 42.2849 v -1.05823 z "/>
<g style="stroke:#000;stroke-width:.243">
<path style="fill:#04a" id="path46344" d="m 145.0447,213.2228 l 20.4493,60.2099 -9.6037,3.2274 -12.5112,-63.7964"/>
<g style="fill:#c13c1b">
<path id="path46346" d="m 123.7938,209.7626 l -11.182,80.1158 12.983,2.3766 .6802,-82.1809"/>
<path id="path46350" d="m 119.7178,208.9926 l -19.1758,44.8674 8.0783,4.2004 13.2563,-48.7121"/>
<path id="path46342" d="m 145.9973,213.4643 l 23.7603,47.6917 -7.2335,3.5863 -17.5567,-51.447"/>
</g>
</g>
<g style="stroke-linecap:round;stroke-linejoin:round">
<g id="g50023">
<path style="fill:#fac53a;stroke:#fac53a;stroke-width:38.532" id="path19323" d="m 116.5349,305.8715 c 0,1.80124 1.27055,2.59158 2.95489,2.59158 1.6843,0 2.92427,-0.869995 2.89699,-2.59158 -0.027252,-1.7218 -1.21269,-2.59158 -2.89699,-2.59158 -1.68435,0 -2.95489,0.816833 -2.95489,2.59158 z "/>
<g style="fill:none">
<path style="stroke:#fff;stroke-width:6.662" id="path31198" d="m 115.4238,305.8585 c 0,2.39987 1.69281,3.45294 3.93697,3.45294 2.24411,0 3.89618,-1.15918 3.85986,-3.45294 -0.036339,-2.29407 -1.61575,-3.45294 -3.85986,-3.45294 -2.24416,0 -3.93697,1.08832 -3.93697,3.45294 z "/>
<path style="stroke:#000;stroke-width:8" id="path28287" d="m 115.3487,305.8557 c 0,2.4491 1.72759,3.52374 4.01771,3.52374 2.29016,0 3.97612,-1.18292 3.93903,-3.52374 -0.037086,-2.34109 -1.64887,-3.52374 -3.93903,-3.52374 -2.29012,0 -4.01771,1.11066 -4.01771,3.52374 z "/>
<path style="stroke:#fac53a;stroke-width:6.798" id="path21264" d="m 115.3487,305.8557 c 0,2.4491 1.72759,3.52374 4.01771,3.52374 2.29016,0 3.97612,-1.18292 3.93903,-3.52374 -0.037086,-2.34109 -1.64887,-3.52374 -3.93903,-3.52374 -2.29012,0 -4.01771,1.11066 -4.01771,3.52374 z "/>
</g>
</g>
<g id="g50029">
<path style="fill:#fac53a;stroke:#fac53a;stroke-width:38.532" id="path50031" d="m 151.2439,305.8715 c 0,1.80124 1.27054,2.59158 2.95487,2.59158 1.68434,0 2.9243,-0.869995 2.89702,-2.59158 -0.027283,-1.7218 -1.21268,-2.59158 -2.89702,-2.59158 -1.68433,0 -2.95487,0.816833 -2.95487,2.59158 z "/>
<g style="fill:none">
<path style="stroke:#fff;stroke-width:6.662" id="path50033" d="m 150.1329,305.8585 c 0,2.39987 1.69282,3.45294 3.93698,3.45294 2.24408,0 3.89616,-1.15918 3.85983,-3.45294 -0.036331,-2.29407 -1.61575,-3.45294 -3.85983,-3.45294 -2.24416,0 -3.93698,1.08832 -3.93698,3.45294 z "/>
<path style="stroke:#000;stroke-width:8" id="path50035" d="m 150.0578,305.8557 c 0,2.4491 1.72759,3.52374 4.01769,3.52374 2.29018,0 3.97615,-1.18292 3.93903,-3.52374 -0.037079,-2.34109 -1.64885,-3.52374 -3.93903,-3.52374 -2.2901,0 -4.01769,1.11066 -4.01769,3.52374 z "/>
<path style="stroke:#fac53a;stroke-width:6.798" id="path50037" d="m 150.0578,305.8557 c 0,2.4491 1.72759,3.52374 4.01769,3.52374 2.29018,0 3.97615,-1.18292 3.93903,-3.52374 -0.037079,-2.34109 -1.64885,-3.52374 -3.93903,-3.52374 -2.2901,0 -4.01769,1.11066 -4.01769,3.52374 z "/>
</g>
</g>
</g>
</g>
</g>
<g style="fill-rule:evenodd">
<path style="stroke-width:.5" id="path50229" d="m 119.6948,208.7645 l 26.3646,4.5012 .1874,.4022 -26.6172,-4.5652 .0653,-.3381 z "/>
<g style="stroke:#c13c1b">
<g style="fill:#fac53a">
<path style="stroke-width:.25" id="path51204" d="m 107.8141,275.7419 l -31.4123,53.4645 .0192,.2119 1.6448,.0749 31.2102,-53.3286 -1.4618,-.4227 z "/>
<path style="stroke-width:.4" id="path32523" d="m 197.9758,307.2755 c -0.450806,3.1246 0.10527,6.96393 2.66539,11.0544 -2.47653,2.84641 -4.42007,5.77905 -4.96733,8.93759 -3.42966,0.440002 -6.84619,0.277893 -9.64833,2.54526 l 25.4216,-.0275 -13.4713,-22.5097 z "/>
</g>
<g style="fill:none;stroke-linecap:round;stroke-linejoin:round">
<g style="stroke-width:1.232">
<path id="path32525" d="m 202.5845,322.2695 a -0.772107,0.749453 0 1,1 -1.54422,0 z "/>
<path id="path57020" d="m 199.5025,327.185 a -0.772107,0.749453 0 1,1 -1.54422,0 z "/>
</g>
<path style="stroke-width:.4" id="path32529" d="m 211.095,329.7055 c -0.484604,-0.470398 -10.0249,-5.1777 -10.0249,-5.1777 l 10.098,4.9641"/>
</g>
</g>
</g>
</g>
</g>
</g>
</svg>
